<?xml version="1.0" encoding="UTF-8" standalone="no"?>
<!DOCTYPE svg PUBLIC "-//W3C//DTD SVG 1.1//EN" "http://www.w3.org/Graphics/SVG/1.1/DTD/svg11.dtd">
<svg width="100%" height="100%" viewBox="0 0 3185 1015" version="1.1" xmlns="http://www.w3.org/2000/svg" xmlns:xlink="http://www.w3.org/1999/xlink" xml:space="preserve" xmlns:serif="http://www.serif.com/" style="fill-rule:evenodd;clip-rule:evenodd;stroke-linecap:round;stroke-miterlimit:10;">
    <g>
        <g id="Logo---Curves" serif:id="Logo - Curves">
            <g>
                <path d="M2480.78,52.605L3099.64,51.824C3132.44,51.782 3158.91,90.128 3158.76,137.469L3156.53,835.615C3156.38,882.957 3129.66,921.369 3096.86,921.41L2486.48,922.181" style="fill:none;fill-rule:nonzero;stroke:#c3996b;stroke-width:25px;"/>
                <rect x="684.368" y="40.051" width="1871.23" height="24.972" style="fill:#c3996b;"/>
                <path d="M707.578,922.078L88.719,922.078C55.915,922.078 29.321,883.699 29.321,836.358L29.321,138.223C29.321,90.882 55.915,52.504 88.719,52.504L699.11,52.504" style="fill:none;fill-rule:nonzero;stroke:#c3996b;stroke-width:25px;stroke-linejoin:round;stroke-miterlimit:25;"/>
            </g>
            <g>
                <path d="M1025.24,948.807C1025.24,952.545 1025.13,955.923 1024.9,958.942C1024.67,961.961 1024.25,964.721 1023.65,967.222C1023.04,969.723 1022.4,971.923 1021.71,973.82C1021.02,975.718 1020.04,977.4 1018.77,978.866C1017.51,980.332 1016.26,981.583 1015.02,982.618C1013.79,983.653 1012.18,984.53 1010.19,985.249C1008.21,985.967 1006.3,986.542 1004.46,986.974C1002.62,987.405 1000.32,987.736 997.557,987.966C994.796,988.196 992.166,988.354 989.664,988.44C987.163,988.526 984.101,988.569 980.479,988.569C973.636,988.569 967.9,988.368 963.271,987.966C958.642,987.563 954.704,986.701 951.455,985.378C948.206,984.055 945.69,982.69 943.908,981.281C942.125,979.872 940.716,977.63 939.681,974.553C938.646,971.477 937.971,968.53 937.654,965.713C937.338,962.895 937.065,958.899 936.835,953.723L952.792,951.136C952.964,952.401 953.137,954.183 953.309,956.484C953.654,960.049 953.985,962.564 954.301,964.031C954.617,965.497 955.235,967.121 956.155,968.904C957.076,970.686 958.513,971.851 960.468,972.397C962.423,972.943 964.982,973.418 968.145,973.82C971.307,974.223 975.533,974.424 980.824,974.424C985.194,974.424 988.788,974.309 991.605,974.079C994.423,973.849 996.895,973.375 999.023,972.656C1001.15,971.937 1002.76,971.118 1003.85,970.198C1004.95,969.278 1005.82,967.854 1006.48,965.928C1007.14,964.002 1007.56,962.004 1007.73,959.934C1007.91,957.864 1007.96,955.104 1007.91,951.653C1007.85,944.063 1007.43,938.816 1006.66,935.912C1005.88,933.009 1004.23,931.298 1001.7,930.78L958.743,923.276C951.268,922.011 946.064,919.165 943.131,914.737C940.199,910.31 938.646,903.151 938.474,893.261C938.474,887.971 938.747,883.442 939.293,879.676C939.839,875.91 940.788,872.603 942.139,869.757C943.491,866.911 945.158,864.625 947.142,862.9C949.126,861.175 951.742,859.78 954.991,858.717C958.24,857.653 961.805,856.934 965.686,856.56C969.568,856.187 974.326,856 979.961,856C984.561,856 988.514,856.1 991.821,856.302C995.127,856.503 998.347,856.862 1001.48,857.38C1004.62,857.897 1007.22,858.616 1009.29,859.536C1011.36,860.456 1013.27,861.649 1015.02,863.116C1016.78,864.582 1018.14,866.364 1019.12,868.463C1020.1,870.562 1020.85,873.02 1021.36,875.838C1021.88,878.655 1022.14,881.904 1022.14,885.584L1006.79,889.121C1006.21,882.795 1005.84,879.202 1005.66,878.339C1004.97,875.406 1003.34,873.423 1000.75,872.388C997.873,871.18 991.864,870.576 982.721,870.576C977.719,870.576 973.593,870.72 970.344,871.008C967.095,871.295 964.436,871.712 962.366,872.258C960.296,872.805 958.757,873.624 957.751,874.716C956.745,875.809 956.069,876.973 955.724,878.21C955.379,879.446 955.207,881.07 955.207,883.083L955.207,898.005C955.207,903.41 957.564,906.515 962.279,907.32L993.158,912.581C996.033,913.041 998.333,913.444 1000.06,913.789C1001.78,914.134 1003.77,914.594 1006.01,915.169C1008.25,915.744 1010.01,916.348 1011.27,916.98C1012.54,917.613 1013.94,918.418 1015.5,919.395C1017.05,920.373 1018.26,921.465 1019.12,922.673C1019.98,923.88 1020.86,925.318 1021.75,926.985C1022.64,928.653 1023.3,930.536 1023.73,932.635C1024.16,934.734 1024.53,937.12 1024.81,939.794C1025.1,942.468 1025.24,945.472 1025.24,948.807Z" style="fill:#c3996b;fill-rule:nonzero;"/>
                <path d="M1113.63,988.569C1108.63,988.569 1104.19,988.454 1100.31,988.224C1096.43,987.994 1092.85,987.434 1089.57,986.542C1086.29,985.651 1083.49,984.832 1081.16,984.084C1078.83,983.337 1076.73,981.914 1074.86,979.815C1073,977.716 1071.46,975.905 1070.25,974.381C1069.04,972.857 1068.01,970.327 1067.14,966.791C1066.28,963.254 1065.65,960.236 1065.25,957.734C1064.85,955.233 1064.51,951.366 1064.26,946.133C1064,940.901 1063.85,936.416 1063.82,932.678C1063.8,928.94 1063.78,923.535 1063.78,916.463C1063.78,907.952 1064.01,900.88 1064.47,895.244C1064.93,889.609 1065.84,884.377 1067.19,879.547C1068.54,874.716 1070.32,870.921 1072.54,868.161C1074.75,865.401 1077.77,863.029 1081.59,861.045C1085.42,859.062 1089.87,857.71 1094.96,856.992C1100.05,856.273 1106.28,855.913 1113.63,855.913C1120.59,855.913 1126.54,856.258 1131.49,856.949C1136.43,857.639 1140.82,858.86 1144.64,860.614C1148.47,862.368 1151.54,864.553 1153.87,867.169C1156.2,869.786 1158.11,873.221 1159.61,877.477C1161.1,881.732 1162.12,886.49 1162.67,891.751C1163.21,897.013 1163.49,903.41 1163.49,910.942C1163.49,932.218 1163.17,946.22 1162.54,952.947C1161.45,964.447 1158.8,972.67 1154.61,977.615C1150.18,982.905 1142.64,986.241 1132.01,987.621C1126.95,988.253 1120.82,988.569 1113.63,988.569ZM1125.97,869.541C1122.69,869.311 1118.58,869.196 1113.63,869.196C1108.69,869.196 1104.58,869.311 1101.3,869.541C1098.02,869.771 1095.16,870.26 1092.72,871.008C1090.28,871.755 1088.39,872.589 1087.07,873.509C1085.75,874.429 1084.67,875.852 1083.84,877.778C1083,879.705 1082.45,881.674 1082.2,883.687C1081.94,885.699 1081.75,888.431 1081.63,891.881C1081.46,902.518 1081.38,913.214 1081.38,923.966C1081.38,940.182 1081.81,951.28 1082.67,957.26C1084.05,966.23 1086.67,971.405 1090.52,972.785C1093.39,974.453 1101.1,975.287 1113.63,975.287C1126.17,975.287 1133.88,974.453 1136.75,972.785C1137.84,972.383 1138.84,971.721 1139.73,970.801C1140.62,969.881 1141.37,968.645 1141.97,967.093C1142.57,965.54 1143.1,963.973 1143.56,962.392C1144.02,960.811 1144.4,958.784 1144.69,956.311C1144.97,953.838 1145.2,951.61 1145.38,949.626C1145.55,947.643 1145.66,945.113 1145.72,942.036C1145.78,938.96 1145.82,936.416 1145.85,934.403C1145.88,932.39 1145.89,929.717 1145.89,926.382C1145.89,914.766 1145.81,903.266 1145.63,891.881C1145.52,888.431 1145.33,885.699 1145.07,883.687C1144.82,881.674 1144.27,879.705 1143.43,877.778C1142.6,875.852 1141.52,874.429 1140.2,873.509C1138.88,872.589 1137,871.755 1134.55,871.008C1132.11,870.26 1129.25,869.771 1125.97,869.541Z" style="fill:#c3996b;fill-rule:nonzero;"/>
                <path d="M1277.84,871.266L1224.8,871.266L1224.8,913.185L1269.99,913.185L1269.99,927.158L1224.8,927.158L1224.8,986.499L1207.29,986.499L1207.29,857.984L1276.12,857.984L1277.84,871.266Z" style="fill:#c3996b;fill-rule:nonzero;"/>
                <path d="M1384.43,871.266L1350.88,871.266L1350.88,986.499L1333.37,986.499L1333.37,871.266L1300.51,871.266L1300.51,857.984L1384.43,857.984L1384.43,871.266Z" style="fill:#c3996b;fill-rule:nonzero;"/>
                <path d="M1547.95,857.984L1520.69,986.499L1501.98,986.499L1477.48,885.325L1453.16,986.499L1434.53,986.499L1406.24,857.984L1424.69,857.984L1444.88,962.435L1469.46,857.984L1486.8,857.984L1512.07,962.435L1531.73,857.984L1547.95,857.984Z" style="fill:#c3996b;fill-rule:nonzero;"/>
                <path d="M1671.53,986.499L1653.76,986.499L1644.02,953.637L1596.49,953.637L1587.09,986.499L1570.27,986.499L1609.69,857.984L1633.06,857.984L1671.53,986.499ZM1640.39,941.217L1629.53,902.662L1620.56,871.094C1617.22,882.997 1614.29,893.232 1611.76,901.8L1600.2,941.217L1640.39,941.217Z" style="fill:#c3996b;fill-rule:nonzero;"/>
                <path d="M1796.67,893.347C1796.67,904.33 1794.6,912.481 1790.46,917.799C1786.32,923.118 1780.54,926.382 1773.12,927.589C1784.16,929.832 1790.72,936.847 1792.79,948.635L1799.43,986.499L1780.71,986.499C1780.25,983.854 1779.72,980.016 1779.11,974.985C1778.51,969.953 1777.95,965.698 1777.43,962.219C1776.91,958.74 1776.22,955.046 1775.36,951.136C1774.5,947.226 1773.36,943.948 1771.95,941.303C1770.55,938.658 1768.86,936.703 1766.91,935.438C1763.8,934.115 1758.72,933.454 1751.64,933.454L1724.99,933.454L1724.99,986.499L1707.57,986.499L1707.57,857.984L1746.81,857.984C1750.95,857.984 1754.47,858.027 1757.38,858.113C1760.28,858.199 1763.34,858.386 1766.56,858.674C1769.78,858.961 1772.49,859.364 1774.67,859.881C1776.86,860.399 1779.09,861.089 1781.36,861.951C1783.63,862.814 1785.5,863.877 1786.96,865.142C1788.43,866.407 1789.82,867.917 1791.15,869.671C1792.47,871.424 1793.5,873.437 1794.25,875.708C1795,877.98 1795.59,880.582 1796.02,883.514C1796.45,886.447 1796.67,889.724 1796.67,893.347ZM1779.41,900.161L1779.41,888.172C1779.41,885.987 1779.37,884.276 1779.29,883.04C1779.2,881.804 1778.98,880.481 1778.64,879.072C1778.29,877.663 1777.76,876.6 1777.04,875.881C1776.33,875.162 1775.38,874.443 1774.2,873.725C1773.02,873.006 1771.5,872.503 1769.63,872.215C1767.76,871.928 1765.57,871.683 1763.07,871.482C1760.57,871.281 1757.57,871.18 1754.06,871.18L1724.99,871.18L1724.99,919.74L1755.09,919.74C1759.52,919.74 1763.17,919.51 1766.05,919.05C1768.92,918.59 1771.27,917.943 1773.08,917.109C1774.89,916.276 1776.25,915.011 1777.17,913.314C1778.09,911.618 1778.7,909.807 1778.98,907.88C1779.27,905.954 1779.41,903.381 1779.41,900.161Z" style="fill:#c3996b;fill-rule:nonzero;"/>
                <path d="M1912.31,986.499L1839.52,986.499L1839.52,857.984L1911.54,857.984L1913.26,871.266L1857.03,871.266L1857.03,912.581L1905.07,912.581L1905.07,926.554L1857.03,926.554L1857.03,973.303L1914.04,973.303L1912.31,986.499Z" style="fill:#c3996b;fill-rule:nonzero;"/>
                <path d="M2104.62,946.651L2119.63,948.893C2119.34,954.413 2118.86,959.114 2118.16,962.996C2117.47,966.877 2116.45,970.341 2115.1,973.389C2113.75,976.437 2112.1,978.895 2110.14,980.764C2108.19,982.632 2105.67,984.17 2102.6,985.378C2099.52,986.586 2096.07,987.419 2092.25,987.879C2088.42,988.339 2083.81,988.569 2078.4,988.569C2073.23,988.569 2068.6,988.44 2064.52,988.181C2060.43,987.922 2056.71,987.347 2053.35,986.456C2049.98,985.565 2047.05,984.702 2044.55,983.869C2042.05,983.035 2039.83,981.64 2037.91,979.685C2035.98,977.73 2034.37,975.977 2033.08,974.424C2031.78,972.871 2030.69,970.5 2029.8,967.308C2028.91,964.117 2028.23,961.314 2027.77,958.899C2027.31,956.484 2026.95,952.976 2026.69,948.376C2026.44,943.776 2026.28,939.751 2026.22,936.301C2026.16,932.85 2026.13,928.078 2026.13,921.983C2026.13,915.542 2026.16,910.367 2026.22,906.457C2026.28,902.547 2026.45,898.292 2026.74,893.692C2027.03,889.092 2027.38,885.527 2027.82,882.997C2028.25,880.467 2028.94,877.692 2029.89,874.673C2030.84,871.655 2031.91,869.412 2033.12,867.946C2034.33,866.479 2035.91,864.884 2037.86,863.159C2039.82,861.434 2041.96,860.24 2044.29,859.579C2046.62,858.918 2049.45,858.242 2052.79,857.552C2056.12,856.862 2059.7,856.431 2063.52,856.258C2067.35,856.086 2071.79,856 2076.85,856C2082.08,856 2086.54,856.187 2090.22,856.56C2093.9,856.934 2097.35,857.653 2100.57,858.717C2103.79,859.78 2106.43,861.189 2108.51,862.943C2110.57,864.697 2112.4,866.983 2113.98,869.8C2115.56,872.618 2116.78,875.938 2117.65,879.762C2118.51,883.586 2119.14,888.172 2119.55,893.519L2104.45,896.452C2104.16,893.519 2103.91,891.076 2103.68,889.121C2103.45,887.166 2103.11,885.239 2102.68,883.342C2102.25,881.444 2101.91,879.906 2101.65,878.727C2101.39,877.548 2100.86,876.398 2100.05,875.277C2099.25,874.156 2098.6,873.308 2098.11,872.733C2097.62,872.158 2096.72,871.611 2095.39,871.094C2094.07,870.576 2092.97,870.217 2092.07,870.016C2091.18,869.814 2089.72,869.628 2087.68,869.455C2085.63,869.283 2083.87,869.196 2082.37,869.196L2075.82,869.196C2071.79,869.196 2068.5,869.239 2065.94,869.326C2063.38,869.412 2060.82,869.613 2058.26,869.929C2055.7,870.246 2053.69,870.706 2052.22,871.309C2050.76,871.913 2049.39,872.718 2048.13,873.725C2046.86,874.731 2045.96,875.967 2045.41,877.433C2044.87,878.9 2044.54,880.668 2044.42,882.738C2043.9,897.918 2043.64,913.415 2043.64,929.228C2043.64,940.268 2043.9,951.05 2044.42,961.572C2044.71,964.85 2045.64,967.409 2047.22,969.249C2048.8,971.089 2051.88,972.555 2056.45,973.648C2061.02,974.74 2067.51,975.287 2075.9,975.287C2080.39,975.287 2084.15,975.157 2087.2,974.898C2090.25,974.64 2092.81,974.036 2094.88,973.087C2096.95,972.138 2098.53,971.276 2099.62,970.5C2100.71,969.723 2101.59,968.214 2102.25,965.971C2102.91,963.729 2103.34,961.846 2103.55,960.322C2103.75,958.798 2103.96,956.196 2104.19,952.516L2104.45,948.764C2104.51,947.988 2104.57,947.283 2104.62,946.651Z" style="fill:#c3996b;fill-rule:nonzero;"/>
                <path d="M2207.76,988.569C2202.76,988.569 2198.32,988.454 2194.44,988.224C2190.56,987.994 2186.98,987.434 2183.7,986.542C2180.42,985.651 2177.62,984.832 2175.29,984.084C2172.96,983.337 2170.86,981.914 2168.99,979.815C2167.12,977.716 2165.59,975.905 2164.38,974.381C2163.17,972.857 2162.14,970.327 2161.27,966.791C2160.41,963.254 2159.78,960.236 2159.38,957.734C2158.97,955.233 2158.64,951.366 2158.39,946.133C2158.13,940.901 2157.98,936.416 2157.95,932.678C2157.93,928.94 2157.91,923.535 2157.91,916.463C2157.91,907.952 2158.14,900.88 2158.6,895.244C2159.06,889.609 2159.97,884.377 2161.32,879.547C2162.67,874.716 2164.45,870.921 2166.66,868.161C2168.88,865.401 2171.9,863.029 2175.72,861.045C2179.55,859.062 2184,857.71 2189.09,856.992C2194.18,856.273 2200.4,855.913 2207.76,855.913C2214.72,855.913 2220.67,856.258 2225.62,856.949C2230.56,857.639 2234.95,858.86 2238.77,860.614C2242.6,862.368 2245.67,864.553 2248,867.169C2250.33,869.786 2252.24,873.221 2253.74,877.477C2255.23,881.732 2256.25,886.49 2256.8,891.751C2257.35,897.013 2257.62,903.41 2257.62,910.942C2257.62,932.218 2257.3,946.22 2256.67,952.947C2255.58,964.447 2252.93,972.67 2248.73,977.615C2244.31,982.905 2236.77,986.241 2226.14,987.621C2221.08,988.253 2214.95,988.569 2207.76,988.569ZM2220.1,869.541C2216.82,869.311 2212.71,869.196 2207.76,869.196C2202.82,869.196 2198.71,869.311 2195.43,869.541C2192.15,869.771 2189.29,870.26 2186.85,871.008C2184.4,871.755 2182.52,872.589 2181.2,873.509C2179.88,874.429 2178.8,875.852 2177.96,877.778C2177.13,879.705 2176.58,881.674 2176.32,883.687C2176.07,885.699 2175.88,888.431 2175.76,891.881C2175.59,902.518 2175.51,913.214 2175.51,923.966C2175.51,940.182 2175.94,951.28 2176.8,957.26C2178.18,966.23 2180.8,971.405 2184.65,972.785C2187.52,974.453 2195.23,975.287 2207.76,975.287C2220.3,975.287 2228,974.453 2230.88,972.785C2231.97,972.383 2232.96,971.721 2233.86,970.801C2234.75,969.881 2235.49,968.645 2236.1,967.093C2236.7,965.54 2237.23,963.973 2237.69,962.392C2238.15,960.811 2238.53,958.784 2238.82,956.311C2239.1,953.838 2239.33,951.61 2239.51,949.626C2239.68,947.643 2239.79,945.113 2239.85,942.036C2239.91,938.96 2239.95,936.416 2239.98,934.403C2240.01,932.39 2240.02,929.717 2240.02,926.382C2240.02,914.766 2239.94,903.266 2239.76,891.881C2239.65,888.431 2239.46,885.699 2239.2,883.687C2238.94,881.674 2238.4,879.705 2237.56,877.778C2236.73,875.852 2235.65,874.429 2234.33,873.509C2233.01,872.589 2231.12,871.755 2228.68,871.008C2226.24,870.26 2223.38,869.771 2220.1,869.541Z" style="fill:#c3996b;fill-rule:nonzero;"/>
            </g>
            <g>
                <path d="M384.786,500.688C383.167,507.813 381.872,513.966 380.9,519.147C379.929,524.329 379.443,529.187 379.443,533.721C379.443,545.055 383.41,554.123 391.344,560.924C399.279,567.725 411.018,571.125 426.563,571.125C437.898,571.125 447.208,569.182 454.495,565.296C461.781,561.41 467.773,556.228 472.468,549.751C477.164,543.274 480.888,535.826 483.641,527.406C486.394,518.985 488.742,510.08 490.685,500.688L531.976,302.493L576.181,302.493L533.919,501.66C530.68,517.204 525.984,531.777 519.831,545.379C513.678,558.981 504.853,570.963 493.357,581.326C481.86,591.689 467.044,599.867 448.908,605.858C430.773,611.849 408.265,614.845 381.386,614.845C344.144,614.845 316.616,608.772 298.805,596.628C280.993,584.484 272.087,565.782 272.087,540.521C272.087,529.187 273.545,514.775 276.459,497.288C279.374,479.8 283.098,460.855 287.632,440.452L317.264,302.493L427.534,302.493L384.786,500.688Z" style="fill:#ce3240;fill-rule:nonzero;"/>
                <path d="M688.88,433.166C695.681,426.689 703.291,420.698 711.711,415.192C719.16,410.658 727.904,406.448 737.943,402.562C747.982,398.676 759.155,396.733 771.461,396.733C788.301,396.733 802.227,401.024 813.238,409.606C824.249,418.188 829.754,429.927 829.754,444.824C829.754,449.034 829.268,454.135 828.297,460.126C827.325,466.117 826.192,472.351 824.896,478.828C823.601,485.305 822.225,491.863 820.767,498.502C819.31,505.141 818.095,511.051 817.124,516.233L796.721,610.958L698.11,610.958L724.827,484.172C725.475,479.962 726.284,475.671 727.256,471.299C728.228,466.927 728.713,462.96 728.713,459.397C728.713,454.54 727.499,450.573 725.07,447.496C722.641,444.419 718.998,442.881 714.14,442.881C708.311,442.881 702.725,444.986 697.381,449.196C692.038,453.406 687.908,456.969 684.994,459.883L652.933,610.958L553.835,610.958L598.041,402.076L677.221,402.076L685.965,433.166L688.88,433.166Z" style="fill:#ce3240;fill-rule:nonzero;"/>
                <path d="M992.488,463.284C992.812,461.664 993.135,460.045 993.459,458.426C993.783,456.807 993.945,455.025 993.945,453.082C993.945,447.253 992.893,441.829 990.788,436.809C988.683,431.789 984.553,429.28 978.4,429.28C972.895,429.28 967.39,431.627 961.884,436.323C956.379,441.019 953.626,447.253 953.626,455.025C953.626,460.207 955.002,464.336 957.755,467.413C960.508,470.489 964.151,472.999 968.685,474.942C973.219,476.885 978.319,478.504 983.987,479.8C989.654,481.095 995.24,482.391 1000.75,483.686C1008.52,485.629 1015.89,487.977 1022.85,490.73C1029.81,493.482 1036.05,497.126 1041.55,501.66C1047.06,506.193 1051.43,511.78 1054.67,518.419C1057.9,525.058 1059.52,533.235 1059.52,542.95C1059.52,556.552 1056.37,567.968 1050.05,577.197C1043.74,586.427 1034.99,593.875 1023.82,599.543C1012.65,605.21 999.531,609.177 984.473,611.444C969.414,613.711 953.302,614.845 936.138,614.845C909.906,614.845 888.209,612.901 871.045,609.015C853.881,605.129 841.898,601.405 835.097,597.843L845.299,549.265L910.878,549.265C910.554,550.885 910.392,552.423 910.392,553.88L910.392,558.495C910.392,565.943 912.092,571.854 915.493,576.226C918.893,580.598 924.803,582.784 933.224,582.784C942.615,582.784 949.335,580.112 953.383,574.768C957.431,569.425 959.455,564.486 959.455,559.952C959.455,555.418 957.755,551.451 954.355,548.051C950.954,544.65 946.663,541.736 941.482,539.307C936.3,536.878 930.552,534.773 924.237,532.992C917.922,531.211 911.85,529.511 906.02,527.891C901.81,526.92 897.033,525.301 891.69,523.034C886.346,520.767 881.246,517.528 876.388,513.318C871.53,509.108 867.482,503.684 864.244,497.045C861.005,490.406 859.386,482.067 859.386,472.027C859.386,457.778 862.867,445.877 869.83,436.323C876.793,426.77 885.861,419.078 897.033,413.249C908.206,407.42 920.836,403.21 934.924,400.619C949.011,398.028 963.179,396.733 977.429,396.733C995.24,396.733 1012.08,398.352 1027.95,401.59C1043.82,404.829 1056.77,409.039 1066.81,414.221L1055.64,463.284L992.488,463.284Z" style="fill:#ce3240;fill-rule:nonzero;"/>
                <path d="M1156.68,692.568L1057.58,692.568L1118.79,402.076L1197.97,402.076L1206.71,433.166L1209.63,433.166C1221.29,420.859 1234.32,412.035 1248.73,406.691C1263.14,401.348 1277.31,398.676 1291.24,398.676C1302.57,398.676 1312.05,400.376 1319.65,403.776C1327.27,407.177 1333.34,411.792 1337.87,417.621C1342.41,423.45 1345.64,430.413 1347.59,438.509C1349.53,446.605 1350.5,455.187 1350.5,464.255C1350.5,468.789 1350.18,475.59 1349.53,484.658C1348.88,493.725 1347.42,503.846 1345.16,515.018C1342.89,526.191 1339.65,537.688 1335.44,549.508C1331.23,561.329 1325.65,572.097 1318.68,581.812C1311.72,591.527 1302.98,599.462 1292.45,605.615C1281.93,611.768 1269.38,614.845 1254.81,614.845C1246.71,614.845 1238.86,613.873 1231.25,611.93C1223.63,609.987 1216.75,607.396 1210.6,604.158C1204.45,600.919 1199.02,597.114 1194.33,592.742C1189.63,588.37 1186.15,583.917 1183.88,579.383L1180.97,579.383L1156.68,692.568ZM1208.17,567.725C1215.94,567.725 1222.42,563.596 1227.6,555.337C1232.78,547.079 1236.99,537.364 1240.23,526.191C1243.47,515.018 1245.82,503.846 1247.28,492.673C1248.73,481.5 1249.46,473.161 1249.46,467.656C1249.46,461.179 1248.41,455.835 1246.3,451.625C1244.2,447.415 1240.39,445.31 1234.89,445.31C1228.74,445.31 1222.91,447.496 1217.4,451.868C1211.89,456.24 1207.85,460.045 1205.26,463.284L1186.31,552.18C1188.9,555.742 1191.98,559.224 1195.54,562.624C1199.1,566.024 1203.31,567.725 1208.17,567.725Z" style="fill:#ce3240;fill-rule:nonzero;"/>
                <path d="M1469.52,513.318C1468.22,520.443 1467.33,527.244 1466.84,533.721C1466.36,540.198 1466.12,546.027 1466.12,551.208C1466.12,554.123 1466.28,557.361 1466.6,560.924C1466.92,564.486 1467.65,567.806 1468.79,570.882C1469.92,573.959 1471.54,576.549 1473.64,578.655C1475.75,580.76 1478.75,581.812 1482.63,581.812C1485.55,581.812 1488.87,580.84 1492.59,578.897C1496.32,576.954 1500.04,574.202 1503.76,570.639C1507.49,567.077 1511.05,562.705 1514.45,557.523C1517.85,552.342 1520.52,546.513 1522.46,540.036L1602.13,540.036L1589.5,592.013C1583.03,596.223 1575.58,599.786 1567.16,602.7C1558.74,605.615 1549.83,607.963 1540.44,609.744C1531.05,611.525 1521.49,612.821 1511.78,613.63C1502.06,614.44 1492.83,614.845 1484.09,614.845C1467.9,614.845 1452.84,613.387 1438.91,610.473C1424.99,607.558 1412.84,602.538 1402.48,595.414C1392.12,588.289 1383.94,578.816 1377.95,566.996C1371.96,555.176 1368.96,540.521 1368.96,523.034C1368.96,507.165 1371.47,491.62 1376.49,476.399C1381.51,461.179 1389.93,447.658 1401.75,435.837C1413.57,424.017 1429.44,414.544 1449.36,407.42C1469.27,400.295 1494.13,396.733 1523.92,396.733C1556.31,396.733 1580.68,401.752 1597.03,411.792C1613.39,421.831 1621.56,437.538 1621.56,458.912C1621.56,467.656 1620.27,477.128 1617.68,487.329C1615.09,497.531 1611.2,506.193 1606.02,513.318L1469.52,513.318ZM1534.12,455.511C1534.12,445.472 1532.51,438.671 1529.27,435.109C1526.03,431.546 1522.14,429.765 1517.61,429.765C1512.43,429.765 1507.65,431.465 1503.28,434.866C1498.9,438.266 1494.94,442.8 1491.38,448.468C1487.81,454.135 1484.58,460.612 1481.66,467.898C1478.75,475.185 1476.32,482.876 1474.37,490.973L1529.75,490.973C1530.4,487.086 1531.05,483.038 1531.69,478.828C1532.34,475.266 1532.91,471.38 1533.39,467.17C1533.88,462.96 1534.12,459.074 1534.12,455.511Z" style="fill:#ce3240;fill-rule:nonzero;"/>
                <path d="M1845.02,599.3C1831.42,604.805 1817.09,608.772 1802.03,611.201C1786.97,613.63 1769.89,614.845 1750.78,614.845C1733.94,614.845 1718.48,613.144 1704.39,609.744C1690.3,606.344 1678.08,600.919 1667.71,593.471C1657.35,586.022 1649.25,576.388 1643.42,564.567C1637.59,552.747 1634.68,538.416 1634.68,521.576C1634.68,504.088 1637.67,487.815 1643.67,472.756C1649.66,457.697 1658.73,444.5 1670.87,433.166C1683.01,421.831 1698.48,412.925 1717.26,406.448C1736.04,399.971 1758.39,396.733 1784.3,396.733C1805.35,396.733 1823.64,398.433 1839.19,401.833C1854.73,405.234 1867.53,412.925 1877.57,424.908L1863.96,487.086L1797.9,487.086C1798.22,481.581 1798.55,476.723 1798.87,472.513C1799.19,468.303 1799.36,463.607 1799.36,458.426C1799.36,448.063 1798.22,440.695 1795.95,436.323C1793.69,431.951 1789.96,429.765 1784.78,429.765C1775.72,429.765 1767.78,434.218 1760.98,443.124C1754.18,452.03 1748.59,462.717 1744.22,475.185C1739.85,487.653 1736.61,500.769 1734.51,514.533C1732.4,528.296 1731.35,540.036 1731.35,549.751C1731.35,553.313 1731.51,556.957 1731.83,560.681C1732.16,564.405 1732.89,567.887 1734.02,571.125C1735.15,574.364 1736.69,576.954 1738.63,578.897C1740.58,580.84 1743.33,581.812 1746.89,581.812C1750.13,581.812 1753.86,580.84 1758.07,578.897C1762.28,576.954 1766.32,573.959 1770.21,569.911C1774.1,565.863 1777.82,560.6 1781.38,554.123C1784.94,547.646 1787.7,539.874 1789.64,530.806L1859.11,530.806L1845.02,599.3Z" style="fill:#ce3240;fill-rule:nonzero;"/>
                <path d="M1976.18,610.958L1877.57,610.958L1921.77,402.076L2021.35,402.076L1976.18,610.958ZM2033.98,338.44C2033.98,345.889 2032.44,352.366 2029.37,357.871C2026.29,363.376 2022.24,368.072 2017.23,371.958C2012.21,375.845 2006.46,378.759 1999.98,380.702C1993.5,382.645 1986.86,383.617 1980.06,383.617C1967.11,383.617 1956.26,380.54 1947.52,374.387C1938.77,368.234 1934.4,358.519 1934.4,345.241C1934.4,338.116 1935.86,331.72 1938.77,326.053C1941.69,320.386 1945.65,315.69 1950.67,311.965C1955.69,308.241 1961.52,305.408 1968.16,303.464C1974.8,301.521 1981.68,300.55 1988.81,300.55C2001.44,300.55 2012.12,303.626 2020.87,309.779C2029.61,315.933 2033.98,325.486 2033.98,338.44Z" style="fill:#ce3240;fill-rule:nonzero;"/>
                <path d="M2047.1,402.076L2084.5,402.076L2088.88,382.16C2093.09,362.729 2099.81,346.293 2109.04,332.854C2118.26,319.414 2129.44,308.484 2142.55,300.064C2155.67,291.644 2170.24,285.572 2186.27,281.848C2202.3,278.123 2219.22,276.261 2237.04,276.261C2252.91,276.261 2268.05,277.719 2282.46,280.633C2296.87,283.548 2312.33,288.244 2328.85,294.721L2313.3,342.812C2302.94,338.278 2292.66,334.635 2282.46,331.882C2272.26,329.129 2261.33,327.753 2249.67,327.753C2243.51,327.753 2237.36,328.239 2231.21,329.21C2225.05,330.182 2219.39,332.044 2214.2,334.797C2209.02,337.549 2204.49,341.436 2200.6,346.455C2196.72,351.475 2193.8,358.033 2191.86,366.129L2184.09,402.076L2344.39,402.076L2299.7,610.958L2200.6,610.958L2238.01,434.623L2177.29,434.623L2139.4,610.958L2040.79,610.958L2077.7,434.623L2040.3,434.623L2047.1,402.076Z" style="fill:#ce3240;fill-rule:nonzero;"/>
                <path d="M2453.69,513.318C2452.4,520.443 2451.51,527.244 2451.02,533.721C2450.53,540.198 2450.29,546.027 2450.29,551.208C2450.29,554.123 2450.45,557.361 2450.78,560.924C2451.1,564.486 2451.83,567.806 2452.96,570.882C2454.1,573.959 2455.72,576.549 2457.82,578.655C2459.93,580.76 2462.92,581.812 2466.81,581.812C2469.72,581.812 2473.04,580.84 2476.76,578.897C2480.49,576.954 2484.21,574.202 2487.94,570.639C2491.66,567.077 2495.22,562.705 2498.62,557.523C2502.03,552.342 2504.7,546.513 2506.64,540.036L2586.31,540.036L2573.68,592.013C2567.2,596.223 2559.75,599.786 2551.33,602.7C2542.91,605.615 2534.01,607.963 2524.61,609.744C2515.22,611.525 2505.67,612.821 2495.95,613.63C2486.24,614.44 2477.01,614.845 2468.26,614.845C2452.07,614.845 2437.01,613.387 2423.09,610.473C2409.16,607.558 2397.02,602.538 2386.66,595.414C2376.29,588.289 2368.11,578.816 2362.12,566.996C2356.13,555.176 2353.14,540.521 2353.14,523.034C2353.14,507.165 2355.65,491.62 2360.67,476.399C2365.68,461.179 2374.11,447.658 2385.93,435.837C2397.75,424.017 2413.62,414.544 2433.53,407.42C2453.45,400.295 2478.3,396.733 2508.1,396.733C2540.48,396.733 2564.85,401.752 2581.21,411.792C2597.56,421.831 2605.74,437.538 2605.74,458.912C2605.74,467.656 2604.44,477.128 2601.85,487.329C2599.26,497.531 2595.38,506.193 2590.19,513.318L2453.69,513.318ZM2518.3,455.511C2518.3,445.472 2516.68,438.671 2513.44,435.109C2510.2,431.546 2506.32,429.765 2501.78,429.765C2496.6,429.765 2491.82,431.465 2487.45,434.866C2483.08,438.266 2479.11,442.8 2475.55,448.468C2471.99,454.135 2468.75,460.612 2465.84,467.898C2462.92,475.185 2460.49,482.876 2458.55,490.973L2513.93,490.973C2514.58,487.086 2515.22,483.038 2515.87,478.828C2516.52,475.266 2517.08,471.38 2517.57,467.17C2518.06,462.96 2518.3,459.074 2518.3,455.511Z" style="fill:#ce3240;fill-rule:nonzero;"/>
                <path d="M2815.59,284.519L2915.18,284.519L2845.71,610.958L2767.01,610.958L2758.27,579.869L2754.87,579.869C2752.93,582.784 2749.93,586.265 2745.88,590.313C2741.84,594.361 2736.73,598.247 2730.58,601.972C2724.43,605.696 2717.14,608.772 2708.72,611.201C2700.3,613.63 2690.59,614.845 2679.58,614.845C2668.24,614.845 2658.61,613.144 2650.67,609.744C2642.74,606.344 2636.26,601.729 2631.24,595.899C2626.22,590.07 2622.58,583.026 2620.31,574.768C2618.04,566.51 2616.91,557.523 2616.91,547.808C2616.91,543.598 2617.23,536.878 2617.88,527.648C2618.53,518.419 2620.07,508.218 2622.5,497.045C2624.93,485.872 2628.49,474.375 2633.18,462.555C2637.88,450.734 2644.2,439.966 2652.13,430.251C2660.06,420.536 2669.86,412.52 2681.52,406.205C2693.18,399.89 2707.26,396.733 2723.78,396.733C2728.96,396.733 2734.47,397.219 2740.3,398.19C2746.13,399.162 2751.71,400.943 2757.06,403.534C2762.4,406.124 2767.18,409.849 2771.39,414.706C2775.6,419.564 2778.67,425.879 2780.62,433.651L2784.02,433.651L2815.59,284.519ZM2756.33,444.338C2748.55,444.338 2742.08,448.629 2736.9,457.211C2731.72,465.793 2727.51,475.752 2724.27,487.086C2721.03,498.421 2718.68,509.756 2717.22,521.09C2715.76,532.425 2715.04,540.845 2715.04,546.351C2715.04,552.828 2716.01,558.252 2717.95,562.624C2719.89,566.996 2723.62,569.182 2729.12,569.182C2732.36,569.182 2735.52,568.453 2738.6,566.996C2741.67,565.539 2744.59,563.757 2747.34,561.652C2750.09,559.547 2752.44,557.361 2754.38,555.095C2756.33,552.828 2757.95,550.885 2759.24,549.265L2778.19,460.855C2775.92,457.292 2772.93,453.649 2769.2,449.925C2765.48,446.201 2761.18,444.338 2756.33,444.338Z" style="fill:#ce3240;fill-rule:nonzero;"/>
            </g>
        </g>
        <g>
            <g>
                <path d="M2480.78,52.605L3099.64,51.824C3132.44,51.782 3158.91,90.128 3158.76,137.469L3156.53,835.615C3156.38,882.957 3129.66,921.369 3096.86,921.41L2486.48,922.181" style="fill:none;fill-rule:nonzero;stroke:#c3996b;stroke-width:25px;"/>
                <rect x="684.368" y="40.051" width="1871.23" height="24.972" style="fill:#c3996b;"/>
                <path d="M707.578,922.078L88.719,922.078C55.915,922.078 29.321,883.699 29.321,836.358L29.321,138.223C29.321,90.882 55.915,52.504 88.719,52.504L699.11,52.504" style="fill:none;fill-rule:nonzero;stroke:#c3996b;stroke-width:25px;stroke-linejoin:round;stroke-miterlimit:25;"/>
            </g>
            <g>
                <path d="M1025.24,948.807C1025.24,952.545 1025.13,955.923 1024.9,958.942C1024.67,961.961 1024.25,964.721 1023.65,967.222C1023.04,969.723 1022.4,971.923 1021.71,973.82C1021.02,975.718 1020.04,977.4 1018.77,978.866C1017.51,980.332 1016.26,981.583 1015.02,982.618C1013.79,983.653 1012.18,984.53 1010.19,985.249C1008.21,985.967 1006.3,986.542 1004.46,986.974C1002.62,987.405 1000.32,987.736 997.557,987.966C994.796,988.196 992.166,988.354 989.664,988.44C987.163,988.526 984.101,988.569 980.479,988.569C973.636,988.569 967.9,988.368 963.271,987.966C958.642,987.563 954.704,986.701 951.455,985.378C948.206,984.055 945.69,982.69 943.908,981.281C942.125,979.872 940.716,977.63 939.681,974.553C938.646,971.477 937.971,968.53 937.654,965.713C937.338,962.895 937.065,958.899 936.835,953.723L952.792,951.136C952.964,952.401 953.137,954.183 953.309,956.484C953.654,960.049 953.985,962.564 954.301,964.031C954.617,965.497 955.235,967.121 956.155,968.904C957.076,970.686 958.513,971.851 960.468,972.397C962.423,972.943 964.982,973.418 968.145,973.82C971.307,974.223 975.533,974.424 980.824,974.424C985.194,974.424 988.788,974.309 991.605,974.079C994.423,973.849 996.895,973.375 999.023,972.656C1001.15,971.937 1002.76,971.118 1003.85,970.198C1004.95,969.278 1005.82,967.854 1006.48,965.928C1007.14,964.002 1007.56,962.004 1007.73,959.934C1007.91,957.864 1007.96,955.104 1007.91,951.653C1007.85,944.063 1007.43,938.816 1006.66,935.912C1005.88,933.009 1004.23,931.298 1001.7,930.78L958.743,923.276C951.268,922.011 946.064,919.165 943.131,914.737C940.199,910.31 938.646,903.151 938.474,893.261C938.474,887.971 938.747,883.442 939.293,879.676C939.839,875.91 940.788,872.603 942.139,869.757C943.491,866.911 945.158,864.625 947.142,862.9C949.126,861.175 951.742,859.78 954.991,858.717C958.24,857.653 961.805,856.934 965.686,856.56C969.568,856.187 974.326,856 979.961,856C984.561,856 988.514,856.1 991.821,856.302C995.127,856.503 998.347,856.862 1001.48,857.38C1004.62,857.897 1007.22,858.616 1009.29,859.536C1011.36,860.456 1013.27,861.649 1015.02,863.116C1016.78,864.582 1018.14,866.364 1019.12,868.463C1020.1,870.562 1020.85,873.02 1021.36,875.838C1021.88,878.655 1022.14,881.904 1022.14,885.584L1006.79,889.121C1006.21,882.795 1005.84,879.202 1005.66,878.339C1004.97,875.406 1003.34,873.423 1000.75,872.388C997.873,871.18 991.864,870.576 982.721,870.576C977.719,870.576 973.593,870.72 970.344,871.008C967.095,871.295 964.436,871.712 962.366,872.258C960.296,872.805 958.757,873.624 957.751,874.716C956.745,875.809 956.069,876.973 955.724,878.21C955.379,879.446 955.207,881.07 955.207,883.083L955.207,898.005C955.207,903.41 957.564,906.515 962.279,907.32L993.158,912.581C996.033,913.041 998.333,913.444 1000.06,913.789C1001.78,914.134 1003.77,914.594 1006.01,915.169C1008.25,915.744 1010.01,916.348 1011.27,916.98C1012.54,917.613 1013.94,918.418 1015.5,919.395C1017.05,920.373 1018.26,921.465 1019.12,922.673C1019.98,923.88 1020.86,925.318 1021.75,926.985C1022.64,928.653 1023.3,930.536 1023.73,932.635C1024.16,934.734 1024.53,937.12 1024.81,939.794C1025.1,942.468 1025.24,945.472 1025.24,948.807Z" style="fill:#c3996b;fill-rule:nonzero;"/>
                <path d="M1113.63,988.569C1108.63,988.569 1104.19,988.454 1100.31,988.224C1096.43,987.994 1092.85,987.434 1089.57,986.542C1086.29,985.651 1083.49,984.832 1081.16,984.084C1078.83,983.337 1076.73,981.914 1074.86,979.815C1073,977.716 1071.46,975.905 1070.25,974.381C1069.04,972.857 1068.01,970.327 1067.14,966.791C1066.28,963.254 1065.65,960.236 1065.25,957.734C1064.85,955.233 1064.51,951.366 1064.26,946.133C1064,940.901 1063.85,936.416 1063.82,932.678C1063.8,928.94 1063.78,923.535 1063.78,916.463C1063.78,907.952 1064.01,900.88 1064.47,895.244C1064.93,889.609 1065.84,884.377 1067.19,879.547C1068.54,874.716 1070.32,870.921 1072.54,868.161C1074.75,865.401 1077.77,863.029 1081.59,861.045C1085.42,859.062 1089.87,857.71 1094.96,856.992C1100.05,856.273 1106.28,855.913 1113.63,855.913C1120.59,855.913 1126.54,856.258 1131.49,856.949C1136.43,857.639 1140.82,858.86 1144.64,860.614C1148.47,862.368 1151.54,864.553 1153.87,867.169C1156.2,869.786 1158.11,873.221 1159.61,877.477C1161.1,881.732 1162.12,886.49 1162.67,891.751C1163.21,897.013 1163.49,903.41 1163.49,910.942C1163.49,932.218 1163.17,946.22 1162.54,952.947C1161.45,964.447 1158.8,972.67 1154.61,977.615C1150.18,982.905 1142.64,986.241 1132.01,987.621C1126.95,988.253 1120.82,988.569 1113.63,988.569ZM1125.97,869.541C1122.69,869.311 1118.58,869.196 1113.63,869.196C1108.69,869.196 1104.58,869.311 1101.3,869.541C1098.02,869.771 1095.16,870.26 1092.72,871.008C1090.28,871.755 1088.39,872.589 1087.07,873.509C1085.75,874.429 1084.67,875.852 1083.84,877.778C1083,879.705 1082.45,881.674 1082.2,883.687C1081.94,885.699 1081.75,888.431 1081.63,891.881C1081.46,902.518 1081.38,913.214 1081.38,923.966C1081.38,940.182 1081.81,951.28 1082.67,957.26C1084.05,966.23 1086.67,971.405 1090.52,972.785C1093.39,974.453 1101.1,975.287 1113.63,975.287C1126.17,975.287 1133.88,974.453 1136.75,972.785C1137.84,972.383 1138.84,971.721 1139.73,970.801C1140.62,969.881 1141.37,968.645 1141.97,967.093C1142.57,965.54 1143.1,963.973 1143.56,962.392C1144.02,960.811 1144.4,958.784 1144.69,956.311C1144.97,953.838 1145.2,951.61 1145.38,949.626C1145.55,947.643 1145.66,945.113 1145.72,942.036C1145.78,938.96 1145.82,936.416 1145.85,934.403C1145.88,932.39 1145.89,929.717 1145.89,926.382C1145.89,914.766 1145.81,903.266 1145.63,891.881C1145.52,888.431 1145.33,885.699 1145.07,883.687C1144.82,881.674 1144.27,879.705 1143.43,877.778C1142.6,875.852 1141.52,874.429 1140.2,873.509C1138.88,872.589 1137,871.755 1134.55,871.008C1132.11,870.26 1129.25,869.771 1125.97,869.541Z" style="fill:#c3996b;fill-rule:nonzero;"/>
                <path d="M1277.84,871.266L1224.8,871.266L1224.8,913.185L1269.99,913.185L1269.99,927.158L1224.8,927.158L1224.8,986.499L1207.29,986.499L1207.29,857.984L1276.12,857.984L1277.84,871.266Z" style="fill:#c3996b;fill-rule:nonzero;"/>
                <path d="M1384.43,871.266L1350.88,871.266L1350.88,986.499L1333.37,986.499L1333.37,871.266L1300.51,871.266L1300.51,857.984L1384.43,857.984L1384.43,871.266Z" style="fill:#c3996b;fill-rule:nonzero;"/>
                <path d="M1547.95,857.984L1520.69,986.499L1501.98,986.499L1477.48,885.325L1453.16,986.499L1434.53,986.499L1406.24,857.984L1424.69,857.984L1444.88,962.435L1469.46,857.984L1486.8,857.984L1512.07,962.435L1531.73,857.984L1547.95,857.984Z" style="fill:#c3996b;fill-rule:nonzero;"/>
                <path d="M1671.53,986.499L1653.76,986.499L1644.02,953.637L1596.49,953.637L1587.09,986.499L1570.27,986.499L1609.69,857.984L1633.06,857.984L1671.53,986.499ZM1640.39,941.217L1629.53,902.662L1620.56,871.094C1617.22,882.997 1614.29,893.232 1611.76,901.8L1600.2,941.217L1640.39,941.217Z" style="fill:#c3996b;fill-rule:nonzero;"/>
                <path d="M1796.67,893.347C1796.67,904.33 1794.6,912.481 1790.46,917.799C1786.32,923.118 1780.54,926.382 1773.12,927.589C1784.16,929.832 1790.72,936.847 1792.79,948.635L1799.43,986.499L1780.71,986.499C1780.25,983.854 1779.72,980.016 1779.11,974.985C1778.51,969.953 1777.95,965.698 1777.43,962.219C1776.91,958.74 1776.22,955.046 1775.36,951.136C1774.5,947.226 1773.36,943.948 1771.95,941.303C1770.55,938.658 1768.86,936.703 1766.91,935.438C1763.8,934.115 1758.72,933.454 1751.64,933.454L1724.99,933.454L1724.99,986.499L1707.57,986.499L1707.57,857.984L1746.81,857.984C1750.95,857.984 1754.47,858.027 1757.38,858.113C1760.28,858.199 1763.34,858.386 1766.56,858.674C1769.78,858.961 1772.49,859.364 1774.67,859.881C1776.86,860.399 1779.09,861.089 1781.36,861.951C1783.63,862.814 1785.5,863.877 1786.96,865.142C1788.43,866.407 1789.82,867.917 1791.15,869.671C1792.47,871.424 1793.5,873.437 1794.25,875.708C1795,877.98 1795.59,880.582 1796.02,883.514C1796.45,886.447 1796.67,889.724 1796.67,893.347ZM1779.41,900.161L1779.41,888.172C1779.41,885.987 1779.37,884.276 1779.29,883.04C1779.2,881.804 1778.98,880.481 1778.64,879.072C1778.29,877.663 1777.76,876.6 1777.04,875.881C1776.33,875.162 1775.38,874.443 1774.2,873.725C1773.02,873.006 1771.5,872.503 1769.63,872.215C1767.76,871.928 1765.57,871.683 1763.07,871.482C1760.57,871.281 1757.57,871.18 1754.06,871.18L1724.99,871.18L1724.99,919.74L1755.09,919.74C1759.52,919.74 1763.17,919.51 1766.05,919.05C1768.92,918.59 1771.27,917.943 1773.08,917.109C1774.89,916.276 1776.25,915.011 1777.17,913.314C1778.09,911.618 1778.7,909.807 1778.98,907.88C1779.27,905.954 1779.41,903.381 1779.41,900.161Z" style="fill:#c3996b;fill-rule:nonzero;"/>
                <path d="M1912.31,986.499L1839.52,986.499L1839.52,857.984L1911.54,857.984L1913.26,871.266L1857.03,871.266L1857.03,912.581L1905.07,912.581L1905.07,926.554L1857.03,926.554L1857.03,973.303L1914.04,973.303L1912.31,986.499Z" style="fill:#c3996b;fill-rule:nonzero;"/>
                <path d="M2104.62,946.651L2119.63,948.893C2119.34,954.413 2118.86,959.114 2118.16,962.996C2117.47,966.877 2116.45,970.341 2115.1,973.389C2113.75,976.437 2112.1,978.895 2110.14,980.764C2108.19,982.632 2105.67,984.17 2102.6,985.378C2099.52,986.586 2096.07,987.419 2092.25,987.879C2088.42,988.339 2083.81,988.569 2078.4,988.569C2073.23,988.569 2068.6,988.44 2064.52,988.181C2060.43,987.922 2056.71,987.347 2053.35,986.456C2049.98,985.565 2047.05,984.702 2044.55,983.869C2042.05,983.035 2039.83,981.64 2037.91,979.685C2035.98,977.73 2034.37,975.977 2033.08,974.424C2031.78,972.871 2030.69,970.5 2029.8,967.308C2028.91,964.117 2028.23,961.314 2027.77,958.899C2027.31,956.484 2026.95,952.976 2026.69,948.376C2026.44,943.776 2026.28,939.751 2026.22,936.301C2026.16,932.85 2026.13,928.078 2026.13,921.983C2026.13,915.542 2026.16,910.367 2026.22,906.457C2026.28,902.547 2026.45,898.292 2026.74,893.692C2027.03,889.092 2027.38,885.527 2027.82,882.997C2028.25,880.467 2028.94,877.692 2029.89,874.673C2030.84,871.655 2031.91,869.412 2033.12,867.946C2034.33,866.479 2035.91,864.884 2037.86,863.159C2039.82,861.434 2041.96,860.24 2044.29,859.579C2046.62,858.918 2049.45,858.242 2052.79,857.552C2056.12,856.862 2059.7,856.431 2063.52,856.258C2067.35,856.086 2071.79,856 2076.85,856C2082.08,856 2086.54,856.187 2090.22,856.56C2093.9,856.934 2097.35,857.653 2100.57,858.717C2103.79,859.78 2106.43,861.189 2108.51,862.943C2110.57,864.697 2112.4,866.983 2113.98,869.8C2115.56,872.618 2116.78,875.938 2117.65,879.762C2118.51,883.586 2119.14,888.172 2119.55,893.519L2104.45,896.452C2104.16,893.519 2103.91,891.076 2103.68,889.121C2103.45,887.166 2103.11,885.239 2102.68,883.342C2102.25,881.444 2101.91,879.906 2101.65,878.727C2101.39,877.548 2100.86,876.398 2100.05,875.277C2099.25,874.156 2098.6,873.308 2098.11,872.733C2097.62,872.158 2096.72,871.611 2095.39,871.094C2094.07,870.576 2092.97,870.217 2092.07,870.016C2091.18,869.814 2089.72,869.628 2087.68,869.455C2085.63,869.283 2083.87,869.196 2082.37,869.196L2075.82,869.196C2071.79,869.196 2068.5,869.239 2065.94,869.326C2063.38,869.412 2060.82,869.613 2058.26,869.929C2055.7,870.246 2053.69,870.706 2052.22,871.309C2050.76,871.913 2049.39,872.718 2048.13,873.725C2046.86,874.731 2045.96,875.967 2045.41,877.433C2044.87,878.9 2044.54,880.668 2044.42,882.738C2043.9,897.918 2043.64,913.415 2043.64,929.228C2043.64,940.268 2043.9,951.05 2044.42,961.572C2044.71,964.85 2045.64,967.409 2047.22,969.249C2048.8,971.089 2051.88,972.555 2056.45,973.648C2061.02,974.74 2067.51,975.287 2075.9,975.287C2080.39,975.287 2084.15,975.157 2087.2,974.898C2090.25,974.64 2092.81,974.036 2094.88,973.087C2096.95,972.138 2098.53,971.276 2099.62,970.5C2100.71,969.723 2101.59,968.214 2102.25,965.971C2102.91,963.729 2103.34,961.846 2103.55,960.322C2103.75,958.798 2103.96,956.196 2104.19,952.516L2104.45,948.764C2104.51,947.988 2104.57,947.283 2104.62,946.651Z" style="fill:#c3996b;fill-rule:nonzero;"/>
                <path d="M2207.76,988.569C2202.76,988.569 2198.32,988.454 2194.44,988.224C2190.56,987.994 2186.98,987.434 2183.7,986.542C2180.42,985.651 2177.62,984.832 2175.29,984.084C2172.96,983.337 2170.86,981.914 2168.99,979.815C2167.12,977.716 2165.59,975.905 2164.38,974.381C2163.17,972.857 2162.14,970.327 2161.27,966.791C2160.41,963.254 2159.78,960.236 2159.38,957.734C2158.97,955.233 2158.64,951.366 2158.39,946.133C2158.13,940.901 2157.98,936.416 2157.95,932.678C2157.93,928.94 2157.91,923.535 2157.91,916.463C2157.91,907.952 2158.14,900.88 2158.6,895.244C2159.06,889.609 2159.97,884.377 2161.32,879.547C2162.67,874.716 2164.45,870.921 2166.66,868.161C2168.88,865.401 2171.9,863.029 2175.72,861.045C2179.55,859.062 2184,857.71 2189.09,856.992C2194.18,856.273 2200.4,855.913 2207.76,855.913C2214.72,855.913 2220.67,856.258 2225.62,856.949C2230.56,857.639 2234.95,858.86 2238.77,860.614C2242.6,862.368 2245.67,864.553 2248,867.169C2250.33,869.786 2252.24,873.221 2253.74,877.477C2255.23,881.732 2256.25,886.49 2256.8,891.751C2257.35,897.013 2257.62,903.41 2257.62,910.942C2257.62,932.218 2257.3,946.22 2256.67,952.947C2255.58,964.447 2252.93,972.67 2248.73,977.615C2244.31,982.905 2236.77,986.241 2226.14,987.621C2221.08,988.253 2214.95,988.569 2207.76,988.569ZM2220.1,869.541C2216.82,869.311 2212.71,869.196 2207.76,869.196C2202.82,869.196 2198.71,869.311 2195.43,869.541C2192.15,869.771 2189.29,870.26 2186.85,871.008C2184.4,871.755 2182.52,872.589 2181.2,873.509C2179.88,874.429 2178.8,875.852 2177.96,877.778C2177.13,879.705 2176.58,881.674 2176.32,883.687C2176.07,885.699 2175.88,888.431 2175.76,891.881C2175.59,902.518 2175.51,913.214 2175.51,923.966C2175.51,940.182 2175.94,951.28 2176.8,957.26C2178.18,966.23 2180.8,971.405 2184.65,972.785C2187.52,974.453 2195.23,975.287 2207.76,975.287C2220.3,975.287 2228,974.453 2230.88,972.785C2231.97,972.383 2232.96,971.721 2233.86,970.801C2234.75,969.881 2235.49,968.645 2236.1,967.093C2236.7,965.54 2237.23,963.973 2237.69,962.392C2238.15,960.811 2238.53,958.784 2238.82,956.311C2239.1,953.838 2239.33,951.61 2239.51,949.626C2239.68,947.643 2239.79,945.113 2239.85,942.036C2239.91,938.96 2239.95,936.416 2239.98,934.403C2240.01,932.39 2240.02,929.717 2240.02,926.382C2240.02,914.766 2239.94,903.266 2239.76,891.881C2239.65,888.431 2239.46,885.699 2239.2,883.687C2238.94,881.674 2238.4,879.705 2237.56,877.778C2236.73,875.852 2235.65,874.429 2234.33,873.509C2233.01,872.589 2231.12,871.755 2228.68,871.008C2226.24,870.26 2223.38,869.771 2220.1,869.541Z" style="fill:#c3996b;fill-rule:nonzero;"/>
            </g>
            <g>
                <path d="M384.786,500.688C383.167,507.813 381.872,513.966 380.9,519.147C379.929,524.329 379.443,529.187 379.443,533.721C379.443,545.055 383.41,554.123 391.344,560.924C399.279,567.725 411.018,571.125 426.563,571.125C437.898,571.125 447.208,569.182 454.495,565.296C461.781,561.41 467.773,556.228 472.468,549.751C477.164,543.274 480.888,535.826 483.641,527.406C486.394,518.985 488.742,510.08 490.685,500.688L531.976,302.493L576.181,302.493L533.919,501.66C530.68,517.204 525.984,531.777 519.831,545.379C513.678,558.981 504.853,570.963 493.357,581.326C481.86,591.689 467.044,599.867 448.908,605.858C430.773,611.849 408.265,614.845 381.386,614.845C344.144,614.845 316.616,608.772 298.805,596.628C280.993,584.484 272.087,565.782 272.087,540.521C272.087,529.187 273.545,514.775 276.459,497.288C279.374,479.8 283.098,460.855 287.632,440.452L317.264,302.493L427.534,302.493L384.786,500.688Z" style="fill:#ce3240;fill-rule:nonzero;"/>
                <path d="M688.88,433.166C695.681,426.689 703.291,420.698 711.711,415.192C719.16,410.658 727.904,406.448 737.943,402.562C747.982,398.676 759.155,396.733 771.461,396.733C788.301,396.733 802.227,401.024 813.238,409.606C824.249,418.188 829.754,429.927 829.754,444.824C829.754,449.034 829.268,454.135 828.297,460.126C827.325,466.117 826.192,472.351 824.896,478.828C823.601,485.305 822.225,491.863 820.767,498.502C819.31,505.141 818.095,511.051 817.124,516.233L796.721,610.958L698.11,610.958L724.827,484.172C725.475,479.962 726.284,475.671 727.256,471.299C728.228,466.927 728.713,462.96 728.713,459.397C728.713,454.54 727.499,450.573 725.07,447.496C722.641,444.419 718.998,442.881 714.14,442.881C708.311,442.881 702.725,444.986 697.381,449.196C692.038,453.406 687.908,456.969 684.994,459.883L652.933,610.958L553.835,610.958L598.041,402.076L677.221,402.076L685.965,433.166L688.88,433.166Z" style="fill:#ce3240;fill-rule:nonzero;"/>
                <path d="M992.488,463.284C992.812,461.664 993.135,460.045 993.459,458.426C993.783,456.807 993.945,455.025 993.945,453.082C993.945,447.253 992.893,441.829 990.788,436.809C988.683,431.789 984.553,429.28 978.4,429.28C972.895,429.28 967.39,431.627 961.884,436.323C956.379,441.019 953.626,447.253 953.626,455.025C953.626,460.207 955.002,464.336 957.755,467.413C960.508,470.489 964.151,472.999 968.685,474.942C973.219,476.885 978.319,478.504 983.987,479.8C989.654,481.095 995.24,482.391 1000.75,483.686C1008.52,485.629 1015.89,487.977 1022.85,490.73C1029.81,493.482 1036.05,497.126 1041.55,501.66C1047.06,506.193 1051.43,511.78 1054.67,518.419C1057.9,525.058 1059.52,533.235 1059.52,542.95C1059.52,556.552 1056.37,567.968 1050.05,577.197C1043.74,586.427 1034.99,593.875 1023.82,599.543C1012.65,605.21 999.531,609.177 984.473,611.444C969.414,613.711 953.302,614.845 936.138,614.845C909.906,614.845 888.209,612.901 871.045,609.015C853.881,605.129 841.898,601.405 835.097,597.843L845.299,549.265L910.878,549.265C910.554,550.885 910.392,552.423 910.392,553.88L910.392,558.495C910.392,565.943 912.092,571.854 915.493,576.226C918.893,580.598 924.803,582.784 933.224,582.784C942.615,582.784 949.335,580.112 953.383,574.768C957.431,569.425 959.455,564.486 959.455,559.952C959.455,555.418 957.755,551.451 954.355,548.051C950.954,544.65 946.663,541.736 941.482,539.307C936.3,536.878 930.552,534.773 924.237,532.992C917.922,531.211 911.85,529.511 906.02,527.891C901.81,526.92 897.033,525.301 891.69,523.034C886.346,520.767 881.246,517.528 876.388,513.318C871.53,509.108 867.482,503.684 864.244,497.045C861.005,490.406 859.386,482.067 859.386,472.027C859.386,457.778 862.867,445.877 869.83,436.323C876.793,426.77 885.861,419.078 897.033,413.249C908.206,407.42 920.836,403.21 934.924,400.619C949.011,398.028 963.179,396.733 977.429,396.733C995.24,396.733 1012.08,398.352 1027.95,401.59C1043.82,404.829 1056.77,409.039 1066.81,414.221L1055.64,463.284L992.488,463.284Z" style="fill:#ce3240;fill-rule:nonzero;"/>
                <path d="M1156.68,692.568L1057.58,692.568L1118.79,402.076L1197.97,402.076L1206.71,433.166L1209.63,433.166C1221.29,420.859 1234.32,412.035 1248.73,406.691C1263.14,401.348 1277.31,398.676 1291.24,398.676C1302.57,398.676 1312.05,400.376 1319.65,403.776C1327.27,407.177 1333.34,411.792 1337.87,417.621C1342.41,423.45 1345.64,430.413 1347.59,438.509C1349.53,446.605 1350.5,455.187 1350.5,464.255C1350.5,468.789 1350.18,475.59 1349.53,484.658C1348.88,493.725 1347.42,503.846 1345.16,515.018C1342.89,526.191 1339.65,537.688 1335.44,549.508C1331.23,561.329 1325.65,572.097 1318.68,581.812C1311.72,591.527 1302.98,599.462 1292.45,605.615C1281.93,611.768 1269.38,614.845 1254.81,614.845C1246.71,614.845 1238.86,613.873 1231.25,611.93C1223.63,609.987 1216.75,607.396 1210.6,604.158C1204.45,600.919 1199.02,597.114 1194.33,592.742C1189.63,588.37 1186.15,583.917 1183.88,579.383L1180.97,579.383L1156.68,692.568ZM1208.17,567.725C1215.94,567.725 1222.42,563.596 1227.6,555.337C1232.78,547.079 1236.99,537.364 1240.23,526.191C1243.47,515.018 1245.82,503.846 1247.28,492.673C1248.73,481.5 1249.46,473.161 1249.46,467.656C1249.46,461.179 1248.41,455.835 1246.3,451.625C1244.2,447.415 1240.39,445.31 1234.89,445.31C1228.74,445.31 1222.91,447.496 1217.4,451.868C1211.89,456.24 1207.85,460.045 1205.26,463.284L1186.31,552.18C1188.9,555.742 1191.98,559.224 1195.54,562.624C1199.1,566.024 1203.31,567.725 1208.17,567.725Z" style="fill:#ce3240;fill-rule:nonzero;"/>
                <path d="M1469.52,513.318C1468.22,520.443 1467.33,527.244 1466.84,533.721C1466.36,540.198 1466.12,546.027 1466.12,551.208C1466.12,554.123 1466.28,557.361 1466.6,560.924C1466.92,564.486 1467.65,567.806 1468.79,570.882C1469.92,573.959 1471.54,576.549 1473.64,578.655C1475.75,580.76 1478.75,581.812 1482.63,581.812C1485.55,581.812 1488.87,580.84 1492.59,578.897C1496.32,576.954 1500.04,574.202 1503.76,570.639C1507.49,567.077 1511.05,562.705 1514.45,557.523C1517.85,552.342 1520.52,546.513 1522.46,540.036L1602.13,540.036L1589.5,592.013C1583.03,596.223 1575.58,599.786 1567.16,602.7C1558.74,605.615 1549.83,607.963 1540.44,609.744C1531.05,611.525 1521.49,612.821 1511.78,613.63C1502.06,614.44 1492.83,614.845 1484.09,614.845C1467.9,614.845 1452.84,613.387 1438.91,610.473C1424.99,607.558 1412.84,602.538 1402.48,595.414C1392.12,588.289 1383.94,578.816 1377.95,566.996C1371.96,555.176 1368.96,540.521 1368.96,523.034C1368.96,507.165 1371.47,491.62 1376.49,476.399C1381.51,461.179 1389.93,447.658 1401.75,435.837C1413.57,424.017 1429.44,414.544 1449.36,407.42C1469.27,400.295 1494.13,396.733 1523.92,396.733C1556.31,396.733 1580.68,401.752 1597.03,411.792C1613.39,421.831 1621.56,437.538 1621.56,458.912C1621.56,467.656 1620.27,477.128 1617.68,487.329C1615.09,497.531 1611.2,506.193 1606.02,513.318L1469.52,513.318ZM1534.12,455.511C1534.12,445.472 1532.51,438.671 1529.27,435.109C1526.03,431.546 1522.14,429.765 1517.61,429.765C1512.43,429.765 1507.65,431.465 1503.28,434.866C1498.9,438.266 1494.94,442.8 1491.38,448.468C1487.81,454.135 1484.58,460.612 1481.66,467.898C1478.75,475.185 1476.32,482.876 1474.37,490.973L1529.75,490.973C1530.4,487.086 1531.05,483.038 1531.69,478.828C1532.34,475.266 1532.91,471.38 1533.39,467.17C1533.88,462.96 1534.12,459.074 1534.12,455.511Z" style="fill:#ce3240;fill-rule:nonzero;"/>
                <path d="M1845.02,599.3C1831.42,604.805 1817.09,608.772 1802.03,611.201C1786.97,613.63 1769.89,614.845 1750.78,614.845C1733.94,614.845 1718.48,613.144 1704.39,609.744C1690.3,606.344 1678.08,600.919 1667.71,593.471C1657.35,586.022 1649.25,576.388 1643.42,564.567C1637.59,552.747 1634.68,538.416 1634.68,521.576C1634.68,504.088 1637.67,487.815 1643.67,472.756C1649.66,457.697 1658.73,444.5 1670.87,433.166C1683.01,421.831 1698.48,412.925 1717.26,406.448C1736.04,399.971 1758.39,396.733 1784.3,396.733C1805.35,396.733 1823.64,398.433 1839.19,401.833C1854.73,405.234 1867.53,412.925 1877.57,424.908L1863.96,487.086L1797.9,487.086C1798.22,481.581 1798.55,476.723 1798.87,472.513C1799.19,468.303 1799.36,463.607 1799.36,458.426C1799.36,448.063 1798.22,440.695 1795.95,436.323C1793.69,431.951 1789.96,429.765 1784.78,429.765C1775.72,429.765 1767.78,434.218 1760.98,443.124C1754.18,452.03 1748.59,462.717 1744.22,475.185C1739.85,487.653 1736.61,500.769 1734.51,514.533C1732.4,528.296 1731.35,540.036 1731.35,549.751C1731.35,553.313 1731.51,556.957 1731.83,560.681C1732.16,564.405 1732.89,567.887 1734.02,571.125C1735.15,574.364 1736.69,576.954 1738.63,578.897C1740.58,580.84 1743.33,581.812 1746.89,581.812C1750.13,581.812 1753.86,580.84 1758.07,578.897C1762.28,576.954 1766.32,573.959 1770.21,569.911C1774.1,565.863 1777.82,560.6 1781.38,554.123C1784.94,547.646 1787.7,539.874 1789.64,530.806L1859.11,530.806L1845.02,599.3Z" style="fill:#ce3240;fill-rule:nonzero;"/>
                <path d="M1976.18,610.958L1877.57,610.958L1921.77,402.076L2021.35,402.076L1976.18,610.958ZM2033.98,338.44C2033.98,345.889 2032.44,352.366 2029.37,357.871C2026.29,363.376 2022.24,368.072 2017.23,371.958C2012.21,375.845 2006.46,378.759 1999.98,380.702C1993.5,382.645 1986.86,383.617 1980.06,383.617C1967.11,383.617 1956.26,380.54 1947.52,374.387C1938.77,368.234 1934.4,358.519 1934.4,345.241C1934.4,338.116 1935.86,331.72 1938.77,326.053C1941.69,320.386 1945.65,315.69 1950.67,311.965C1955.69,308.241 1961.52,305.408 1968.16,303.464C1974.8,301.521 1981.68,300.55 1988.81,300.55C2001.44,300.55 2012.12,303.626 2020.87,309.779C2029.61,315.933 2033.98,325.486 2033.98,338.44Z" style="fill:#ce3240;fill-rule:nonzero;"/>
                <path d="M2047.1,402.076L2084.5,402.076L2088.88,382.16C2093.09,362.729 2099.81,346.293 2109.04,332.854C2118.26,319.414 2129.44,308.484 2142.55,300.064C2155.67,291.644 2170.24,285.572 2186.27,281.848C2202.3,278.123 2219.22,276.261 2237.04,276.261C2252.91,276.261 2268.05,277.719 2282.46,280.633C2296.87,283.548 2312.33,288.244 2328.85,294.721L2313.3,342.812C2302.94,338.278 2292.66,334.635 2282.46,331.882C2272.26,329.129 2261.33,327.753 2249.67,327.753C2243.51,327.753 2237.36,328.239 2231.21,329.21C2225.05,330.182 2219.39,332.044 2214.2,334.797C2209.02,337.549 2204.49,341.436 2200.6,346.455C2196.72,351.475 2193.8,358.033 2191.86,366.129L2184.09,402.076L2344.39,402.076L2299.7,610.958L2200.6,610.958L2238.01,434.623L2177.29,434.623L2139.4,610.958L2040.79,610.958L2077.7,434.623L2040.3,434.623L2047.1,402.076Z" style="fill:#ce3240;fill-rule:nonzero;"/>
                <path d="M2453.69,513.318C2452.4,520.443 2451.51,527.244 2451.02,533.721C2450.53,540.198 2450.29,546.027 2450.29,551.208C2450.29,554.123 2450.45,557.361 2450.78,560.924C2451.1,564.486 2451.83,567.806 2452.96,570.882C2454.1,573.959 2455.72,576.549 2457.82,578.655C2459.93,580.76 2462.92,581.812 2466.81,581.812C2469.72,581.812 2473.04,580.84 2476.76,578.897C2480.49,576.954 2484.21,574.202 2487.94,570.639C2491.66,567.077 2495.22,562.705 2498.62,557.523C2502.03,552.342 2504.7,546.513 2506.64,540.036L2586.31,540.036L2573.68,592.013C2567.2,596.223 2559.75,599.786 2551.33,602.7C2542.91,605.615 2534.01,607.963 2524.61,609.744C2515.22,611.525 2505.67,612.821 2495.95,613.63C2486.24,614.44 2477.01,614.845 2468.26,614.845C2452.07,614.845 2437.01,613.387 2423.09,610.473C2409.16,607.558 2397.02,602.538 2386.66,595.414C2376.29,588.289 2368.11,578.816 2362.12,566.996C2356.13,555.176 2353.14,540.521 2353.14,523.034C2353.14,507.165 2355.65,491.62 2360.67,476.399C2365.68,461.179 2374.11,447.658 2385.93,435.837C2397.75,424.017 2413.62,414.544 2433.53,407.42C2453.45,400.295 2478.3,396.733 2508.1,396.733C2540.48,396.733 2564.85,401.752 2581.21,411.792C2597.56,421.831 2605.74,437.538 2605.74,458.912C2605.74,467.656 2604.44,477.128 2601.85,487.329C2599.26,497.531 2595.38,506.193 2590.19,513.318L2453.69,513.318ZM2518.3,455.511C2518.3,445.472 2516.68,438.671 2513.44,435.109C2510.2,431.546 2506.32,429.765 2501.78,429.765C2496.6,429.765 2491.82,431.465 2487.45,434.866C2483.08,438.266 2479.11,442.8 2475.55,448.468C2471.99,454.135 2468.75,460.612 2465.84,467.898C2462.92,475.185 2460.49,482.876 2458.55,490.973L2513.93,490.973C2514.58,487.086 2515.22,483.038 2515.87,478.828C2516.52,475.266 2517.08,471.38 2517.57,467.17C2518.06,462.96 2518.3,459.074 2518.3,455.511Z" style="fill:#ce3240;fill-rule:nonzero;"/>
                <path d="M2815.59,284.519L2915.18,284.519L2845.71,610.958L2767.01,610.958L2758.27,579.869L2754.87,579.869C2752.93,582.784 2749.93,586.265 2745.88,590.313C2741.84,594.361 2736.73,598.247 2730.58,601.972C2724.43,605.696 2717.14,608.772 2708.72,611.201C2700.3,613.63 2690.59,614.845 2679.58,614.845C2668.24,614.845 2658.61,613.144 2650.67,609.744C2642.74,606.344 2636.26,601.729 2631.24,595.899C2626.22,590.07 2622.58,583.026 2620.31,574.768C2618.04,566.51 2616.91,557.523 2616.91,547.808C2616.91,543.598 2617.23,536.878 2617.88,527.648C2618.53,518.419 2620.07,508.218 2622.5,497.045C2624.93,485.872 2628.49,474.375 2633.18,462.555C2637.88,450.734 2644.2,439.966 2652.13,430.251C2660.06,420.536 2669.86,412.52 2681.52,406.205C2693.18,399.89 2707.26,396.733 2723.78,396.733C2728.96,396.733 2734.47,397.219 2740.3,398.19C2746.13,399.162 2751.71,400.943 2757.06,403.534C2762.4,406.124 2767.18,409.849 2771.39,414.706C2775.6,419.564 2778.67,425.879 2780.62,433.651L2784.02,433.651L2815.59,284.519ZM2756.33,444.338C2748.55,444.338 2742.08,448.629 2736.9,457.211C2731.72,465.793 2727.51,475.752 2724.27,487.086C2721.03,498.421 2718.68,509.756 2717.22,521.09C2715.76,532.425 2715.04,540.845 2715.04,546.351C2715.04,552.828 2716.01,558.252 2717.95,562.624C2719.89,566.996 2723.62,569.182 2729.12,569.182C2732.36,569.182 2735.52,568.453 2738.6,566.996C2741.67,565.539 2744.59,563.757 2747.34,561.652C2750.09,559.547 2752.44,557.361 2754.38,555.095C2756.33,552.828 2757.95,550.885 2759.24,549.265L2778.19,460.855C2775.92,457.292 2772.93,453.649 2769.2,449.925C2765.48,446.201 2761.18,444.338 2756.33,444.338Z" style="fill:#ce3240;fill-rule:nonzero;"/>
            </g>
        </g>
    </g>
</svg>
