<?xml version="1.0" encoding="UTF-8" standalone="no"?>
<!DOCTYPE svg PUBLIC "-//W3C//DTD SVG 1.1//EN" "http://www.w3.org/Graphics/SVG/1.1/DTD/svg11.dtd">
<svg width="100%" height="100%" viewBox="0 0 20465 6899" version="1.1" xmlns="http://www.w3.org/2000/svg" xmlns:xlink="http://www.w3.org/1999/xlink" xml:space="preserve" xmlns:serif="http://www.serif.com/" style="fill-rule:evenodd;clip-rule:evenodd;stroke-miterlimit:10;">
    <g>
        <g>
            <path d="M15597.6,714.836l-11757,-16.928" style="fill:none;fill-rule:nonzero;stroke:rgb(195,153,107);stroke-width:138.89px;"/>
            <path d="M15505.1,713.955l3892.6,17.364c206.342,0.921 371.463,243.071 368.808,540.839l-39.154,4391.25c-2.655,297.778 -172.081,538.426 -378.423,537.506l-3839.34,-17.127" style="fill:none;fill-rule:nonzero;stroke:rgb(195,153,107);stroke-width:138.89px;stroke-linecap:round;"/>
            <path d="M4335.75,6169.98l-3892.68,0c-206.346,0 -373.623,-241.409 -373.623,-539.183l0,-4391.34c0,-297.784 167.277,-539.183 373.623,-539.183l3839.41,0" style="fill:none;fill-rule:nonzero;stroke:rgb(195,153,107);stroke-width:138.89px;stroke-linecap:round;stroke-linejoin:round;stroke-miterlimit:25;"/>
        </g>
        <g>
            <path d="M6296.15,6287.37c0,23.51 -0.723,44.759 -2.17,63.748c-1.447,18.989 -4.069,36.35 -7.867,52.083c-3.798,15.734 -7.867,29.568 -12.207,41.504c-4.34,11.936 -10.489,22.515 -18.446,31.738c-7.957,9.223 -15.824,17.09 -23.6,23.601c-7.777,6.51 -17.904,12.026 -30.382,16.547c-12.479,4.521 -24.505,8.138 -36.079,10.851c-11.574,2.712 -26.042,4.792 -43.403,6.239c-17.361,1.447 -33.908,2.441 -49.642,2.984c-15.733,0.542 -34.993,0.814 -57.78,0.814c-43.041,0 -79.119,-1.266 -108.235,-3.798c-29.116,-2.532 -53.892,-7.957 -74.328,-16.276c-20.435,-8.319 -36.259,-16.909 -47.471,-25.771c-11.213,-8.861 -20.074,-22.967 -26.585,-42.317c-6.51,-19.351 -10.76,-37.887 -12.749,-55.61c-1.989,-17.723 -3.707,-42.86 -5.154,-75.412l100.369,-16.277c1.085,7.958 2.17,19.17 3.255,33.638c2.17,22.424 4.25,38.248 6.239,47.471c1.989,9.223 5.878,19.441 11.665,30.654c5.787,11.212 14.829,18.536 27.126,21.972c12.298,3.436 28.393,6.42 48.286,8.952c19.893,2.532 46.477,3.798 79.753,3.798c27.488,0 50.094,-0.724 67.816,-2.17c17.723,-1.447 33.276,-4.431 46.658,-8.952c13.383,-4.521 23.51,-9.675 30.382,-15.462c6.872,-5.787 12.388,-14.739 16.548,-26.856c4.159,-12.116 6.781,-24.685 7.866,-37.706c1.085,-13.021 1.447,-30.382 1.085,-52.083c-0.361,-47.743 -2.983,-80.748 -7.866,-99.013c-4.883,-18.265 -15.282,-29.026 -31.196,-32.281l-270.182,-47.2c-47.02,-7.957 -79.753,-25.861 -98.199,-53.711c-18.446,-27.85 -28.212,-72.881 -29.297,-135.091c0,-33.276 1.718,-61.759 5.154,-85.45c3.436,-23.69 9.404,-44.487 17.904,-62.391c8.499,-17.904 18.988,-32.281 31.467,-43.132c12.478,-10.85 28.935,-19.621 49.37,-26.312c20.436,-6.692 42.861,-11.213 67.275,-13.564c24.414,-2.351 54.344,-3.526 89.789,-3.526c28.935,0 53.802,0.633 74.599,1.899c20.797,1.265 41.052,3.526 60.764,6.781c19.712,3.255 36.078,7.777 49.099,13.564c13.021,5.787 25.047,13.292 36.079,22.515c11.031,9.223 19.621,20.435 25.77,33.637c6.149,13.202 10.851,28.664 14.106,46.387c3.255,17.722 4.883,38.158 4.883,61.306l-96.571,22.244c-3.617,-39.786 -5.968,-62.391 -7.053,-67.817c-4.341,-18.446 -14.649,-30.924 -30.925,-37.435c-18.084,-7.595 -55.881,-11.393 -113.39,-11.393c-31.467,0 -57.418,0.904 -77.853,2.713c-20.436,1.808 -37.164,4.43 -50.185,7.866c-13.021,3.437 -22.696,8.591 -29.025,15.463c-6.33,6.872 -10.58,14.196 -12.75,21.972c-2.17,7.777 -3.255,17.994 -3.255,30.654l0,93.858c0,33.999 14.829,53.53 44.488,58.594l194.227,33.094c18.085,2.894 32.552,5.426 43.403,7.596c10.85,2.17 23.329,5.064 37.435,8.68c14.106,3.617 25.137,7.415 33.094,11.394c7.957,3.978 16.819,9.042 26.585,15.191c9.765,6.148 17.361,13.021 22.786,20.616c5.425,7.595 10.941,16.638 16.547,27.127c5.606,10.489 9.766,22.334 12.479,35.536c2.712,13.201 4.973,28.212 6.781,45.03c1.809,16.819 2.713,35.717 2.713,56.695Z" style="fill:rgb(195,153,107);fill-rule:nonzero;"/>
            <path d="M6852.14,6537.48c-31.467,0 -59.408,-0.724 -83.822,-2.171c-24.414,-1.446 -46.929,-4.973 -67.546,-10.579c-20.616,-5.606 -38.248,-10.76 -52.897,-15.462c-14.648,-4.702 -27.85,-13.654 -39.605,-26.856c-11.755,-13.201 -21.43,-24.595 -29.025,-34.179c-7.596,-9.585 -14.106,-25.5 -19.532,-47.743c-5.425,-22.244 -9.404,-41.233 -11.935,-56.967c-2.532,-15.733 -4.612,-40.057 -6.24,-72.971c-1.627,-32.913 -2.531,-61.125 -2.712,-84.635c-0.181,-23.51 -0.272,-57.509 -0.272,-101.996c0,-53.531 1.447,-98.018 4.341,-133.464c2.893,-35.446 8.59,-68.359 17.09,-98.741c8.499,-30.382 19.712,-54.254 33.637,-71.615c13.925,-17.361 32.913,-32.281 56.966,-44.759c24.052,-12.478 52.083,-20.978 84.093,-25.499c32.009,-4.521 71.162,-6.782 117.459,-6.782c43.764,0 81.199,2.17 112.304,6.511c31.106,4.34 58.684,12.026 82.737,23.057c24.052,11.032 43.403,24.776 58.051,41.233c14.648,16.457 26.675,38.068 36.079,64.833c9.403,26.765 15.823,56.695 19.26,89.789c3.436,33.095 5.154,73.333 5.154,120.714c0,133.826 -1.99,221.897 -5.968,264.215c-6.872,72.338 -23.51,124.059 -49.913,155.165c-27.851,33.275 -75.232,54.253 -142.145,62.934c-31.828,3.978 -70.348,5.968 -115.559,5.968Zm77.582,-748.698c-20.616,-1.447 -46.477,-2.171 -77.582,-2.171c-31.106,0 -56.967,0.724 -77.583,2.171c-20.616,1.446 -38.61,4.521 -53.982,9.223c-15.372,4.702 -27.217,9.946 -35.536,15.733c-8.319,5.787 -15.101,14.739 -20.345,26.856c-5.245,12.116 -8.681,24.504 -10.308,37.163c-1.628,12.659 -2.803,29.84 -3.527,51.541c-1.085,66.913 -1.627,134.187 -1.627,201.823c0,101.997 2.712,171.803 8.138,209.418c8.68,56.424 25.137,88.976 49.37,97.657c18.085,10.489 66.551,15.733 145.4,15.733c78.848,0 127.314,-5.244 145.399,-15.733c6.872,-2.532 13.111,-6.692 18.717,-12.479c5.606,-5.787 10.308,-13.563 14.106,-23.329c3.798,-9.765 7.144,-19.621 10.037,-29.568c2.894,-9.946 5.245,-22.696 7.053,-38.248c1.808,-15.553 3.255,-29.569 4.34,-42.047c1.085,-12.478 1.809,-28.393 2.17,-47.743c0.362,-19.35 0.633,-35.355 0.814,-48.014c0.181,-12.659 0.272,-29.478 0.272,-50.456c0,-73.061 -0.543,-145.399 -1.628,-217.014c-0.723,-21.701 -1.899,-38.882 -3.527,-51.541c-1.627,-12.659 -5.063,-25.047 -10.308,-37.163c-5.244,-12.117 -12.026,-21.069 -20.345,-26.856c-8.319,-5.787 -20.164,-11.031 -35.536,-15.733c-15.372,-4.702 -33.366,-7.777 -53.982,-9.223Z" style="fill:rgb(195,153,107);fill-rule:nonzero;"/>
            <path d="M7885.02,5799.63l-333.659,0l0,263.672l284.288,0l0,87.891l-284.288,0l0,373.264l-110.134,0l0,-808.377l432.942,0l10.851,83.55Z" style="fill:rgb(195,153,107);fill-rule:nonzero;"/>
            <path d="M8555.49,5799.63l-211.046,0l0,724.827l-110.135,0l0,-724.827l-206.706,0l0,-83.55l527.887,0l0,83.55Z" style="fill:rgb(195,153,107);fill-rule:nonzero;"/>
            <path d="M9584.02,5716.08l-171.441,808.377l-117.73,0l-154.08,-636.394l-152.995,636.394l-117.187,0l-177.952,-808.377l116.103,0l126.953,657.01l154.622,-657.01l109.05,0l158.962,657.01l123.698,-657.01l101.997,0Z" style="fill:rgb(195,153,107);fill-rule:nonzero;"/>
            <path d="M10361.4,6524.46l-111.763,0l-61.306,-206.706l-298.937,0l-59.136,206.706l-105.794,0l247.938,-808.377l147.027,0l241.971,808.377Zm-195.855,-284.831l-68.36,-242.513l-56.423,-198.568c-20.978,74.87 -39.425,139.251 -55.339,193.143l-72.7,247.938l252.822,0Z" style="fill:rgb(195,153,107);fill-rule:nonzero;"/>
            <path d="M11148.5,5938.52c0,69.083 -13.021,120.352 -39.063,153.809c-26.041,33.456 -62.391,53.982 -109.049,61.577c69.444,14.106 110.677,58.233 123.698,132.379l41.775,238.173l-117.73,0c-2.893,-16.638 -6.239,-40.781 -10.037,-72.429c-3.798,-31.648 -7.324,-58.413 -10.579,-80.295c-3.255,-21.882 -7.596,-45.121 -13.021,-69.716c-5.425,-24.594 -12.569,-45.211 -21.43,-61.848c-8.862,-16.638 -19.441,-28.936 -31.738,-36.893c-19.532,-8.319 -51.541,-12.478 -96.029,-12.478l-167.643,0l0,333.659l-109.592,0l0,-808.377l246.853,0c26.042,0 48.195,0.271 66.46,0.814c18.266,0.542 37.526,1.718 57.78,3.526c20.255,1.809 37.254,4.341 50.999,7.596c13.744,3.255 27.759,7.595 42.046,13.021c14.287,5.425 26.042,12.116 35.265,20.073c9.223,7.958 17.994,17.452 26.313,28.483c8.319,11.032 14.829,23.691 19.531,37.978c4.702,14.287 8.409,30.653 11.122,49.099c2.713,18.446 4.069,39.063 4.069,61.849Zm-108.507,42.86l0,-75.412c0,-13.744 -0.271,-24.504 -0.814,-32.281c-0.542,-7.776 -1.899,-16.095 -4.069,-24.956c-2.17,-8.862 -5.516,-15.553 -10.037,-20.074c-4.521,-4.521 -10.489,-9.042 -17.903,-13.563c-7.415,-4.522 -17,-7.686 -28.755,-9.495c-11.755,-1.808 -25.499,-3.345 -41.232,-4.611c-15.734,-1.266 -34.632,-1.899 -56.695,-1.899l-182.834,0l0,305.447l189.344,0c27.85,0 50.818,-1.447 68.902,-4.34c18.085,-2.894 32.824,-6.963 44.217,-12.207c11.393,-5.245 19.983,-13.202 25.77,-23.872c5.787,-10.67 9.585,-22.063 11.393,-34.18c1.809,-12.116 2.713,-28.302 2.713,-48.557Z" style="fill:rgb(195,153,107);fill-rule:nonzero;"/>
            <path d="M11875.9,6524.46l-457.9,0l0,-808.377l453.017,0l10.85,83.55l-353.732,0l0,259.874l302.192,0l0,87.891l-302.192,0l0,294.054l358.615,0l-10.85,83.008Z" style="fill:rgb(195,153,107);fill-rule:nonzero;"/>
            <path d="M13085.6,6273.81l94.401,14.106c-1.809,34.722 -4.883,64.29 -9.223,88.704c-4.341,24.414 -10.761,46.206 -19.26,65.375c-8.5,19.17 -18.899,34.632 -31.196,46.387c-12.298,11.755 -28.122,21.43 -47.472,29.026c-19.35,7.595 -41.052,12.84 -65.104,15.733c-24.053,2.894 -53.078,4.341 -87.077,4.341c-32.552,0 -61.668,-0.814 -87.348,-2.442c-25.68,-1.627 -49.099,-5.244 -70.258,-10.851c-21.159,-5.606 -39.605,-11.031 -55.339,-16.276c-15.733,-5.244 -29.658,-14.015 -41.775,-26.313c-12.117,-12.297 -22.244,-23.329 -30.382,-33.094c-8.138,-9.766 -15.01,-24.685 -20.616,-44.759c-5.607,-20.074 -9.856,-37.706 -12.75,-52.897c-2.893,-15.191 -5.154,-37.254 -6.782,-66.19c-1.627,-28.935 -2.622,-54.253 -2.984,-75.955c-0.361,-21.701 -0.542,-51.721 -0.542,-90.06c0,-40.51 0.181,-73.062 0.542,-97.657c0.362,-24.594 1.447,-51.359 3.256,-80.295c1.808,-28.935 4.069,-51.36 6.781,-67.274c2.713,-15.914 7.053,-33.366 13.021,-52.355c5.968,-18.988 12.75,-33.094 20.345,-42.317c7.596,-9.223 17.542,-19.26 29.84,-30.111c12.297,-10.851 25.77,-18.356 40.419,-22.515c14.648,-4.16 32.461,-8.409 53.439,-12.75c20.978,-4.34 43.493,-7.053 67.546,-8.138c24.052,-1.085 51.993,-1.627 83.821,-1.627c32.914,0 60.945,1.175 84.093,3.526c23.148,2.351 44.85,6.872 65.104,13.564c20.255,6.691 36.893,15.552 49.914,26.584c13.02,11.031 24.504,25.408 34.451,43.131c9.946,17.723 17.632,38.611 23.057,62.663c5.426,24.052 9.404,52.897 11.936,86.534l-94.944,18.446c-1.808,-18.446 -3.436,-33.818 -4.882,-46.115c-1.447,-12.297 -3.527,-24.414 -6.239,-36.35c-2.713,-11.936 -4.883,-21.611 -6.511,-29.025c-1.628,-7.415 -4.973,-14.649 -10.037,-21.702c-5.063,-7.053 -9.132,-12.388 -12.207,-16.005c-3.074,-3.616 -8.771,-7.053 -17.09,-10.308c-8.319,-3.255 -15.281,-5.516 -20.887,-6.781c-5.606,-1.266 -14.83,-2.442 -27.67,-3.527c-12.84,-1.085 -23.961,-1.628 -33.365,-1.628l-41.233,0c-25.318,0 -46.025,0.272 -62.12,0.814c-16.095,0.543 -32.191,1.809 -48.286,3.798c-16.095,1.989 -28.754,4.883 -37.977,8.681c-9.223,3.797 -17.814,8.861 -25.771,15.191c-7.957,6.329 -13.653,14.105 -17.09,23.329c-3.436,9.223 -5.515,20.345 -6.239,33.365c-3.255,95.487 -4.882,192.962 -4.882,292.427c0,69.444 1.627,137.261 4.882,203.45c1.809,20.616 7.686,36.712 17.633,48.286c9.946,11.574 29.297,20.797 58.051,27.669c28.754,6.872 69.535,10.308 122.341,10.308c28.212,0 51.903,-0.814 71.073,-2.441c19.169,-1.628 35.264,-5.426 48.285,-11.393c13.021,-5.968 22.967,-11.394 29.84,-16.276c6.872,-4.883 12.387,-14.378 16.547,-28.484c4.159,-14.105 6.872,-25.951 8.138,-35.536c1.266,-9.584 2.622,-25.951 4.069,-49.099l1.627,-23.6c0.362,-4.883 0.724,-9.314 1.086,-13.292Z" style="fill:rgb(195,153,107);fill-rule:nonzero;"/>
            <path d="M13734.3,6537.48c-31.467,0 -59.408,-0.724 -83.822,-2.171c-24.414,-1.446 -46.929,-4.973 -67.546,-10.579c-20.616,-5.606 -38.248,-10.76 -52.897,-15.462c-14.648,-4.702 -27.85,-13.654 -39.605,-26.856c-11.755,-13.201 -21.43,-24.595 -29.025,-34.179c-7.596,-9.585 -14.106,-25.5 -19.532,-47.743c-5.425,-22.244 -9.404,-41.233 -11.935,-56.967c-2.532,-15.733 -4.612,-40.057 -6.24,-72.971c-1.627,-32.913 -2.531,-61.125 -2.712,-84.635c-0.181,-23.51 -0.271,-57.509 -0.271,-101.996c0,-53.531 1.446,-98.018 4.34,-133.464c2.893,-35.446 8.59,-68.359 17.09,-98.741c8.499,-30.382 19.712,-54.254 33.637,-71.615c13.925,-17.361 32.914,-32.281 56.966,-44.759c24.052,-12.478 52.083,-20.978 84.093,-25.499c32.009,-4.521 71.162,-6.782 117.459,-6.782c43.764,0 81.199,2.17 112.304,6.511c31.106,4.34 58.684,12.026 82.737,23.057c24.052,11.032 43.403,24.776 58.051,41.233c14.648,16.457 26.675,38.068 36.079,64.833c9.404,26.765 15.824,56.695 19.26,89.789c3.436,33.095 5.154,73.333 5.154,120.714c0,133.826 -1.99,221.897 -5.968,264.215c-6.872,72.338 -23.51,124.059 -49.913,155.165c-27.851,33.275 -75.232,54.253 -142.145,62.934c-31.828,3.978 -70.348,5.968 -115.559,5.968Zm77.582,-748.698c-20.616,-1.447 -46.477,-2.171 -77.582,-2.171c-31.106,0 -56.967,0.724 -77.583,2.171c-20.616,1.446 -38.61,4.521 -53.982,9.223c-15.372,4.702 -27.217,9.946 -35.536,15.733c-8.319,5.787 -15.101,14.739 -20.345,26.856c-5.245,12.116 -8.681,24.504 -10.308,37.163c-1.628,12.659 -2.803,29.84 -3.527,51.541c-1.085,66.913 -1.627,134.187 -1.627,201.823c0,101.997 2.712,171.803 8.138,209.418c8.68,56.424 25.137,88.976 49.37,97.657c18.085,10.489 66.551,15.733 145.4,15.733c78.848,0 127.314,-5.244 145.399,-15.733c6.872,-2.532 13.111,-6.692 18.717,-12.479c5.607,-5.787 10.308,-13.563 14.106,-23.329c3.798,-9.765 7.144,-19.621 10.037,-29.568c2.894,-9.946 5.245,-22.696 7.053,-38.248c1.809,-15.553 3.255,-29.569 4.34,-42.047c1.085,-12.478 1.809,-28.393 2.17,-47.743c0.362,-19.35 0.633,-35.355 0.814,-48.014c0.181,-12.659 0.272,-29.478 0.272,-50.456c0,-73.061 -0.543,-145.399 -1.628,-217.014c-0.723,-21.701 -1.899,-38.882 -3.527,-51.541c-1.627,-12.659 -5.063,-25.047 -10.308,-37.163c-5.244,-12.117 -12.026,-21.069 -20.345,-26.856c-8.319,-5.787 -20.164,-11.031 -35.536,-15.733c-15.372,-4.702 -33.366,-7.777 -53.982,-9.223Z" style="fill:rgb(195,153,107);fill-rule:nonzero;"/>
        </g>
        <g>
            <path d="M17599.4,2080.74l626.389,0l-436.944,2053.33l-495,0l-55,-195.555l-21.389,0c-12.222,18.333 -31.065,40.231 -56.528,65.694c-25.463,25.463 -57.546,49.908 -96.25,73.333c-38.704,23.426 -84.537,42.778 -137.5,58.056c-52.963,15.278 -114.074,22.917 -183.333,22.917c-71.297,0 -131.899,-10.695 -181.806,-32.084c-49.907,-21.389 -90.648,-50.416 -122.222,-87.083c-31.574,-36.667 -54.491,-80.972 -68.75,-132.917c-14.259,-51.944 -21.389,-108.472 -21.389,-169.583c0,-26.481 2.037,-68.75 6.111,-126.806c4.074,-58.055 13.75,-122.222 29.028,-192.5c15.278,-70.277 37.685,-142.592 67.222,-216.944c29.537,-74.352 69.259,-142.083 119.167,-203.194c49.907,-61.112 111.528,-111.528 184.861,-151.25c73.333,-39.723 161.944,-59.584 265.833,-59.584c32.593,0 67.222,3.056 103.889,9.167c36.667,6.111 71.806,17.315 105.417,33.611c33.611,16.296 63.657,39.722 90.139,70.278c26.481,30.555 45.833,70.278 58.055,119.166l21.389,0l198.611,-938.055Zm-372.778,1005.28c-48.888,0 -89.629,26.99 -122.222,80.972c-32.592,53.981 -59.074,116.62 -79.444,187.917c-20.371,71.296 -35.139,142.592 -44.306,213.888c-9.166,71.297 -13.75,124.26 -13.75,158.889c0,40.741 6.111,74.861 18.334,102.361c12.222,27.5 35.648,41.25 70.277,41.25c20.371,0 40.232,-4.583 59.584,-13.75c19.351,-9.166 37.685,-20.37 55,-33.611c17.314,-13.24 32.083,-26.99 44.305,-41.25c12.222,-14.259 22.408,-26.481 30.556,-36.666l119.166,-556.111c-14.259,-22.408 -33.101,-45.325 -56.527,-68.75c-23.426,-23.426 -50.417,-35.139 -80.973,-35.139Z" style="fill:rgb(206,50,64);fill-rule:nonzero;"/>
            <path d="M15323.1,3519.91c-8.148,44.814 -13.75,87.592 -16.805,128.333c-3.056,40.741 -4.584,77.407 -4.584,110c0,18.333 1.019,38.704 3.056,61.111c2.037,22.407 6.62,43.287 13.75,62.639c7.13,19.352 17.315,35.648 30.556,48.889c13.24,13.241 32.083,19.861 56.527,19.861c18.334,0 39.213,-6.111 62.639,-18.333c23.426,-12.223 46.852,-29.537 70.278,-51.945c23.426,-22.407 45.833,-49.907 67.222,-82.5c21.389,-32.592 38.195,-69.259 50.417,-110l501.111,0l-79.444,326.945c-40.741,26.481 -87.593,48.888 -140.556,67.222c-52.963,18.333 -108.982,33.102 -168.056,44.305c-59.074,11.204 -119.166,19.352 -180.277,24.445c-61.111,5.092 -119.167,7.639 -174.167,7.639c-101.852,0 -196.574,-9.167 -284.167,-27.5c-87.592,-18.334 -163.981,-49.908 -229.166,-94.723c-65.186,-44.814 -116.621,-104.398 -154.306,-178.75c-37.685,-74.351 -56.528,-166.527 -56.528,-276.527c0,-99.815 15.787,-197.593 47.361,-293.334c31.574,-95.74 84.537,-180.787 158.889,-255.139c74.352,-74.351 174.167,-133.935 299.445,-178.75c125.278,-44.814 281.62,-67.222 469.028,-67.222c203.703,0 356.99,31.574 459.861,94.722c102.87,63.149 154.305,161.945 154.305,296.389c0,55 -8.148,114.584 -24.444,178.75c-16.297,64.167 -40.741,118.658 -73.334,163.473l-858.611,0Zm406.389,-363.612c0,-63.148 -10.185,-105.925 -30.555,-128.333c-20.371,-22.407 -44.815,-33.611 -73.334,-33.611c-32.592,0 -62.639,10.694 -90.139,32.083c-27.5,21.389 -52.453,49.908 -74.861,85.556c-22.407,35.648 -42.777,76.389 -61.111,122.222c-18.333,45.833 -33.611,94.213 -45.833,145.139l348.333,0c4.074,-24.444 8.148,-49.907 12.222,-76.389c4.074,-22.407 7.639,-46.852 10.695,-73.333c3.055,-26.482 4.583,-50.926 4.583,-73.334Z" style="fill:rgb(206,50,64);fill-rule:nonzero;"/>
            <path d="M15323.1,3519.91c-8.148,44.814 -13.75,87.592 -16.805,128.333c-3.056,40.741 -4.584,77.407 -4.584,110c0,18.333 1.019,38.704 3.056,61.111c2.037,22.407 6.62,43.287 13.75,62.639c7.13,19.352 17.315,35.648 30.556,48.889c13.24,13.241 32.083,19.861 56.527,19.861c18.334,0 39.213,-6.111 62.639,-18.333c23.426,-12.223 46.852,-29.537 70.278,-51.945c23.426,-22.407 45.833,-49.907 67.222,-82.5c21.389,-32.592 38.195,-69.259 50.417,-110l501.111,0l-79.444,326.945c-40.741,26.481 -87.593,48.888 -140.556,67.222c-52.963,18.333 -108.982,33.102 -168.056,44.305c-59.074,11.204 -119.166,19.352 -180.277,24.445c-61.111,5.092 -119.167,7.639 -174.167,7.639c-101.852,0 -196.574,-9.167 -284.167,-27.5c-87.592,-18.334 -163.981,-49.908 -229.166,-94.723c-65.186,-44.814 -116.621,-104.398 -154.306,-178.75c-37.685,-74.351 -56.528,-166.527 -56.528,-276.527c0,-99.815 15.787,-197.593 47.361,-293.334c31.574,-95.74 84.537,-180.787 158.889,-255.139c74.352,-74.351 174.167,-133.935 299.445,-178.75c125.278,-44.814 281.62,-67.222 469.028,-67.222c203.703,0 356.99,31.574 459.861,94.722c102.87,63.149 154.305,161.945 154.305,296.389c0,55 -8.148,114.584 -24.444,178.75c-16.297,64.167 -40.741,118.658 -73.334,163.473l-858.611,0Zm406.389,-363.612c0,-63.148 -10.185,-105.925 -30.555,-128.333c-20.371,-22.407 -44.815,-33.611 -73.334,-33.611c-32.592,0 -62.639,10.694 -90.139,32.083c-27.5,21.389 -52.453,49.908 -74.861,85.556c-22.407,35.648 -42.777,76.389 -61.111,122.222c-18.333,45.833 -33.611,94.213 -45.833,145.139l348.333,0c4.074,-24.444 8.148,-49.907 12.222,-76.389c4.074,-22.407 7.639,-46.852 10.695,-73.333c3.055,-26.482 4.583,-50.926 4.583,-73.334Z" style="fill:rgb(206,50,64);fill-rule:nonzero;"/>
            <path d="M12765.6,2820.19l235.278,0l27.5,-125.277c26.482,-122.223 68.75,-225.602 126.806,-310.139c58.055,-84.537 128.333,-153.287 210.833,-206.25c82.5,-52.963 174.167,-91.158 275,-114.584c100.833,-23.426 207.268,-35.139 319.306,-35.139c99.814,0 195.046,9.167 285.694,27.5c90.648,18.334 187.917,47.871 291.806,88.612l-97.778,302.5c-65.185,-28.519 -129.861,-51.436 -194.028,-68.75c-64.167,-17.315 -132.917,-25.973 -206.25,-25.973c-38.704,0 -77.407,3.056 -116.111,9.167c-38.704,6.111 -74.352,17.824 -106.945,35.139c-32.592,17.315 -61.111,41.759 -85.555,73.333c-24.445,31.574 -42.778,72.824 -55,123.75l-48.889,226.111l1008.33,0l-281.111,1313.89l-623.333,0l235.278,-1109.17l-381.945,0l-238.333,1109.17l-620.278,0l232.222,-1109.17l-235.277,0l42.777,-204.723Z" style="fill:rgb(206,50,64);fill-rule:nonzero;"/>
            <path d="M12765.6,2820.19l235.278,0l27.5,-125.277c26.482,-122.223 68.75,-225.602 126.806,-310.139c58.055,-84.537 128.333,-153.287 210.833,-206.25c82.5,-52.963 174.167,-91.158 275,-114.584c100.833,-23.426 207.268,-35.139 319.306,-35.139c99.814,0 195.046,9.167 285.694,27.5c90.648,18.334 187.917,47.871 291.806,88.612l-97.778,302.5c-65.185,-28.519 -129.861,-51.436 -194.028,-68.75c-64.167,-17.315 -132.917,-25.973 -206.25,-25.973c-38.704,0 -77.407,3.056 -116.111,9.167c-38.704,6.111 -74.352,17.824 -106.945,35.139c-32.592,17.315 -61.111,41.759 -85.555,73.333c-24.445,31.574 -42.778,72.824 -55,123.75l-48.889,226.111l1008.33,0l-281.111,1313.89l-623.333,0l235.278,-1109.17l-381.945,0l-238.333,1109.17l-620.278,0l232.222,-1109.17l-235.277,0l42.777,-204.723Z" style="fill:rgb(206,50,64);fill-rule:nonzero;"/>
            <path d="M12319.4,4134.08l-620.278,0l278.056,-1313.89l626.389,0l-284.167,1313.89Zm363.611,-1714.17c0,46.851 -9.676,87.592 -29.027,122.222c-19.352,34.629 -44.815,64.166 -76.389,88.611c-31.574,24.444 -67.732,42.778 -108.473,55c-40.74,12.222 -82.5,18.333 -125.277,18.333c-81.482,0 -149.723,-19.352 -204.723,-58.055c-55,-38.704 -82.5,-99.815 -82.5,-183.334c0,-44.814 9.167,-85.046 27.5,-120.694c18.334,-35.648 43.287,-65.185 74.862,-88.611c31.574,-23.426 68.24,-41.25 110,-53.472c41.759,-12.223 85.046,-18.334 129.861,-18.334c79.444,0 146.666,19.352 201.666,58.056c55,38.703 82.5,98.796 82.5,180.278Z" style="fill:rgb(206,50,64);fill-rule:nonzero;"/>
            <path d="M12319.4,4134.08l-620.278,0l278.056,-1313.89l626.389,0l-284.167,1313.89Zm363.611,-1714.17c0,46.851 -9.676,87.592 -29.027,122.222c-19.352,34.629 -44.815,64.166 -76.389,88.611c-31.574,24.444 -67.732,42.778 -108.473,55c-40.74,12.222 -82.5,18.333 -125.277,18.333c-81.482,0 -149.723,-19.352 -204.723,-58.055c-55,-38.704 -82.5,-99.815 -82.5,-183.334c0,-44.814 9.167,-85.046 27.5,-120.694c18.334,-35.648 43.287,-65.185 74.862,-88.611c31.574,-23.426 68.24,-41.25 110,-53.472c41.759,-12.223 85.046,-18.334 129.861,-18.334c79.444,0 146.666,19.352 201.666,58.056c55,38.703 82.5,98.796 82.5,180.278Z" style="fill:rgb(206,50,64);fill-rule:nonzero;"/>
            <path d="M11494.4,4060.74c-85.555,34.63 -175.694,59.583 -270.416,74.861c-94.723,15.278 -202.176,22.917 -322.362,22.917c-105.926,0 -203.194,-10.695 -291.805,-32.084c-88.611,-21.389 -165.509,-55.509 -230.695,-102.361c-65.185,-46.852 -116.111,-107.453 -152.777,-181.805c-36.667,-74.352 -55,-164.491 -55,-270.417c0,-110 18.842,-212.361 56.527,-307.083c37.686,-94.723 94.723,-177.732 171.112,-249.028c76.388,-71.296 173.657,-127.315 291.805,-168.056c118.148,-40.74 258.704,-61.111 421.667,-61.111c132.407,0 247.5,10.695 345.278,32.084c97.777,21.388 178.24,69.768 241.388,145.138l-85.555,391.112l-415.556,0c2.037,-34.63 4.074,-65.186 6.111,-91.667c2.037,-26.482 3.056,-56.019 3.056,-88.611c0,-65.185 -7.13,-111.528 -21.389,-139.028c-14.259,-27.5 -37.685,-41.25 -70.278,-41.25c-57.037,0 -106.944,28.009 -149.722,84.028c-42.778,56.018 -77.917,123.241 -105.417,201.666c-27.5,78.426 -47.87,160.926 -61.111,247.5c-13.24,86.575 -19.861,160.417 -19.861,221.528c0,22.408 1.019,45.324 3.056,68.75c2.037,23.426 6.62,45.324 13.75,65.695c7.129,20.37 16.805,36.666 29.028,48.889c12.222,12.222 29.537,18.333 51.944,18.333c20.37,0 43.796,-6.111 70.278,-18.333c26.481,-12.223 51.944,-31.065 76.389,-56.528c24.444,-25.463 47.87,-58.565 70.277,-99.306c22.408,-40.741 39.723,-89.629 51.945,-146.666l436.944,0l-88.611,430.833Z" style="fill:rgb(206,50,64);fill-rule:nonzero;"/>
            <path d="M11494.4,4060.74c-85.555,34.63 -175.694,59.583 -270.416,74.861c-94.723,15.278 -202.176,22.917 -322.362,22.917c-105.926,0 -203.194,-10.695 -291.805,-32.084c-88.611,-21.389 -165.509,-55.509 -230.695,-102.361c-65.185,-46.852 -116.111,-107.453 -152.777,-181.805c-36.667,-74.352 -55,-164.491 -55,-270.417c0,-110 18.842,-212.361 56.527,-307.083c37.686,-94.723 94.723,-177.732 171.112,-249.028c76.388,-71.296 173.657,-127.315 291.805,-168.056c118.148,-40.74 258.704,-61.111 421.667,-61.111c132.407,0 247.5,10.695 345.278,32.084c97.777,21.388 178.24,69.768 241.388,145.138l-85.555,391.112l-415.556,0c2.037,-34.63 4.074,-65.186 6.111,-91.667c2.037,-26.482 3.056,-56.019 3.056,-88.611c0,-65.185 -7.13,-111.528 -21.389,-139.028c-14.259,-27.5 -37.685,-41.25 -70.278,-41.25c-57.037,0 -106.944,28.009 -149.722,84.028c-42.778,56.018 -77.917,123.241 -105.417,201.666c-27.5,78.426 -47.87,160.926 -61.111,247.5c-13.24,86.575 -19.861,160.417 -19.861,221.528c0,22.408 1.019,45.324 3.056,68.75c2.037,23.426 6.62,45.324 13.75,65.695c7.129,20.37 16.805,36.666 29.028,48.889c12.222,12.222 29.537,18.333 51.944,18.333c20.37,0 43.796,-6.111 70.278,-18.333c26.481,-12.223 51.944,-31.065 76.389,-56.528c24.444,-25.463 47.87,-58.565 70.277,-99.306c22.408,-40.741 39.723,-89.629 51.945,-146.666l436.944,0l-88.611,430.833Z" style="fill:rgb(206,50,64);fill-rule:nonzero;"/>
            <path d="M9132.5,3519.91c-8.148,44.814 -13.75,87.592 -16.806,128.333c-3.055,40.741 -4.583,77.407 -4.583,110c0,18.333 1.018,38.704 3.055,61.111c2.037,22.407 6.621,43.287 13.75,62.639c7.13,19.352 17.315,35.648 30.556,48.889c13.241,13.241 32.083,19.861 56.528,19.861c18.333,0 39.213,-6.111 62.639,-18.333c23.426,-12.223 46.851,-29.537 70.277,-51.945c23.426,-22.407 45.834,-49.907 67.223,-82.5c21.389,-32.592 38.194,-69.259 50.416,-110l501.111,0l-79.444,326.945c-40.741,26.481 -87.593,48.888 -140.556,67.222c-52.963,18.333 -108.981,33.102 -168.055,44.305c-59.074,11.204 -119.167,19.352 -180.278,24.445c-61.111,5.092 -119.167,7.639 -174.167,7.639c-101.851,0 -196.574,-9.167 -284.166,-27.5c-87.593,-18.334 -163.982,-49.908 -229.167,-94.723c-65.185,-44.814 -116.62,-104.398 -154.305,-178.75c-37.686,-74.351 -56.528,-166.527 -56.528,-276.527c0,-99.815 15.787,-197.593 47.361,-293.334c31.574,-95.74 84.537,-180.787 158.889,-255.139c74.352,-74.351 174.166,-133.935 299.444,-178.75c125.278,-44.814 281.621,-67.222 469.028,-67.222c203.704,0 356.991,31.574 459.861,94.722c102.87,63.149 154.306,161.945 154.306,296.389c0,55 -8.149,114.584 -24.445,178.75c-16.296,64.167 -40.741,118.658 -73.333,163.473l-858.611,0Zm406.389,-363.612c0,-63.148 -10.186,-105.925 -30.556,-128.333c-20.37,-22.407 -44.815,-33.611 -73.333,-33.611c-32.593,0 -62.639,10.694 -90.139,32.083c-27.5,21.389 -52.454,49.908 -74.861,85.556c-22.408,35.648 -42.778,76.389 -61.111,122.222c-18.334,45.833 -33.611,94.213 -45.834,145.139l348.334,0c4.074,-24.444 8.148,-49.907 12.222,-76.389c4.074,-22.407 7.639,-46.852 10.694,-73.333c3.056,-26.482 4.584,-50.926 4.584,-73.334Z" style="fill:rgb(206,50,64);fill-rule:nonzero;"/>
            <path d="M9132.5,3519.91c-8.148,44.814 -13.75,87.592 -16.806,128.333c-3.055,40.741 -4.583,77.407 -4.583,110c0,18.333 1.018,38.704 3.055,61.111c2.037,22.407 6.621,43.287 13.75,62.639c7.13,19.352 17.315,35.648 30.556,48.889c13.241,13.241 32.083,19.861 56.528,19.861c18.333,0 39.213,-6.111 62.639,-18.333c23.426,-12.223 46.851,-29.537 70.277,-51.945c23.426,-22.407 45.834,-49.907 67.223,-82.5c21.389,-32.592 38.194,-69.259 50.416,-110l501.111,0l-79.444,326.945c-40.741,26.481 -87.593,48.888 -140.556,67.222c-52.963,18.333 -108.981,33.102 -168.055,44.305c-59.074,11.204 -119.167,19.352 -180.278,24.445c-61.111,5.092 -119.167,7.639 -174.167,7.639c-101.851,0 -196.574,-9.167 -284.166,-27.5c-87.593,-18.334 -163.982,-49.908 -229.167,-94.723c-65.185,-44.814 -116.62,-104.398 -154.305,-178.75c-37.686,-74.351 -56.528,-166.527 -56.528,-276.527c0,-99.815 15.787,-197.593 47.361,-293.334c31.574,-95.74 84.537,-180.787 158.889,-255.139c74.352,-74.351 174.166,-133.935 299.444,-178.75c125.278,-44.814 281.621,-67.222 469.028,-67.222c203.704,0 356.991,31.574 459.861,94.722c102.87,63.149 154.306,161.945 154.306,296.389c0,55 -8.149,114.584 -24.445,178.75c-16.296,64.167 -40.741,118.658 -73.333,163.473l-858.611,0Zm406.389,-363.612c0,-63.148 -10.186,-105.925 -30.556,-128.333c-20.37,-22.407 -44.815,-33.611 -73.333,-33.611c-32.593,0 -62.639,10.694 -90.139,32.083c-27.5,21.389 -52.454,49.908 -74.861,85.556c-22.408,35.648 -42.778,76.389 -61.111,122.222c-18.334,45.833 -33.611,94.213 -45.834,145.139l348.334,0c4.074,-24.444 8.148,-49.907 12.222,-76.389c4.074,-22.407 7.639,-46.852 10.694,-73.333c3.056,-26.482 4.584,-50.926 4.584,-73.334Z" style="fill:rgb(206,50,64);fill-rule:nonzero;"/>
            <path d="M7164.72,4647.41l-623.333,0l385,-1827.22l498.055,0l55,195.556l18.334,0c73.333,-77.408 155.324,-132.917 245.972,-166.528c90.648,-33.611 179.768,-50.417 267.361,-50.417c71.296,0 130.879,10.695 178.75,32.084c47.87,21.389 86.065,50.416 114.583,87.083c28.519,36.667 48.889,80.463 61.111,131.389c12.223,50.926 18.334,104.907 18.334,161.944c0,28.519 -2.037,71.297 -6.111,128.334c-4.075,57.037 -13.241,120.694 -27.5,190.972c-14.26,70.278 -34.63,142.593 -61.112,216.944c-26.481,74.352 -61.62,142.084 -105.416,203.195c-43.797,61.111 -98.797,111.018 -165,149.722c-66.204,38.704 -145.139,58.056 -236.806,58.056c-50.926,0 -100.324,-6.111 -148.194,-18.334c-47.871,-12.222 -91.158,-28.518 -129.861,-48.889c-38.704,-20.37 -72.824,-44.305 -102.361,-71.805c-29.538,-27.5 -51.436,-55.509 -65.695,-84.028l-18.333,0l-152.778,711.945Zm323.889,-785.278c48.889,0 89.629,-25.972 122.222,-77.917c32.593,-51.944 59.074,-113.055 79.445,-183.333c20.37,-70.278 35.138,-140.556 44.305,-210.834c9.167,-70.277 13.75,-122.731 13.75,-157.361c0,-40.74 -6.62,-74.352 -19.861,-100.833c-13.241,-26.481 -37.176,-39.722 -71.806,-39.722c-38.703,0 -75.37,13.75 -110,41.25c-34.629,27.5 -60.092,51.435 -76.388,71.805l-119.167,559.167c16.296,22.407 35.648,44.306 58.055,65.694c22.408,21.389 48.889,32.084 79.445,32.084Z" style="fill:rgb(206,50,64);fill-rule:nonzero;"/>
            <path d="M7164.72,4647.41l-623.333,0l385,-1827.22l498.055,0l55,195.556l18.334,0c73.333,-77.408 155.324,-132.917 245.972,-166.528c90.648,-33.611 179.768,-50.417 267.361,-50.417c71.296,0 130.879,10.695 178.75,32.084c47.87,21.389 86.065,50.416 114.583,87.083c28.519,36.667 48.889,80.463 61.111,131.389c12.223,50.926 18.334,104.907 18.334,161.944c0,28.519 -2.037,71.297 -6.111,128.334c-4.075,57.037 -13.241,120.694 -27.5,190.972c-14.26,70.278 -34.63,142.593 -61.112,216.944c-26.481,74.352 -61.62,142.084 -105.416,203.195c-43.797,61.111 -98.797,111.018 -165,149.722c-66.204,38.704 -145.139,58.056 -236.806,58.056c-50.926,0 -100.324,-6.111 -148.194,-18.334c-47.871,-12.222 -91.158,-28.518 -129.861,-48.889c-38.704,-20.37 -72.824,-44.305 -102.361,-71.805c-29.538,-27.5 -51.436,-55.509 -65.695,-84.028l-18.333,0l-152.778,711.945Zm323.889,-785.278c48.889,0 89.629,-25.972 122.222,-77.917c32.593,-51.944 59.074,-113.055 79.445,-183.333c20.37,-70.278 35.138,-140.556 44.305,-210.834c9.167,-70.277 13.75,-122.731 13.75,-157.361c0,-40.74 -6.62,-74.352 -19.861,-100.833c-13.241,-26.481 -37.176,-39.722 -71.806,-39.722c-38.703,0 -75.37,13.75 -110,41.25c-34.629,27.5 -60.092,51.435 -76.388,71.805l-119.167,559.167c16.296,22.407 35.648,44.306 58.055,65.694c22.408,21.389 48.889,32.084 79.445,32.084Z" style="fill:rgb(206,50,64);fill-rule:nonzero;"/>
            <path d="M6131.94,3205.19c2.037,-10.185 4.074,-20.37 6.111,-30.555c2.037,-10.185 3.056,-21.389 3.056,-33.611c0,-36.667 -6.621,-70.787 -19.861,-102.361c-13.241,-31.575 -39.213,-47.362 -77.917,-47.362c-34.63,0 -69.259,14.769 -103.889,44.306c-34.629,29.537 -51.944,68.75 -51.944,117.639c0,32.592 8.657,58.565 25.972,77.917c17.315,19.351 40.231,35.138 68.75,47.361c28.518,12.222 60.602,22.407 96.25,30.555c35.648,8.148 70.787,16.297 105.417,24.445c48.889,12.222 95.231,26.99 139.027,44.305c43.797,17.315 83.01,40.232 117.639,68.75c34.63,28.519 62.13,63.658 82.5,105.417c20.371,41.759 30.556,93.194 30.556,154.305c0,85.556 -19.861,157.362 -59.583,215.417c-39.723,58.056 -94.723,104.908 -165,140.556c-70.278,35.648 -152.778,60.602 -247.5,74.861c-94.723,14.259 -196.065,21.389 -304.028,21.389c-165,0 -301.482,-12.223 -409.445,-36.667c-107.963,-24.444 -183.333,-47.87 -226.111,-70.278l64.167,-305.555l412.5,0c-2.037,10.185 -3.056,19.861 -3.056,29.027l0,29.028c0,46.852 10.695,84.028 32.084,111.528c21.389,27.5 58.564,41.25 111.527,41.25c59.074,0 101.343,-16.806 126.806,-50.417c25.463,-33.611 38.194,-64.676 38.194,-93.194c0,-28.519 -10.694,-53.472 -32.083,-74.861c-21.389,-21.389 -48.38,-39.722 -80.972,-55c-32.593,-15.278 -68.75,-28.519 -108.472,-39.722c-39.723,-11.204 -77.917,-21.899 -114.584,-32.084c-26.481,-6.111 -56.527,-16.296 -90.139,-30.555c-33.611,-14.26 -65.694,-34.63 -96.25,-61.111c-30.555,-26.482 -56.018,-60.602 -76.388,-102.362c-20.371,-41.759 -30.556,-94.213 -30.556,-157.361c0,-89.629 21.898,-164.49 65.694,-224.583c43.797,-60.093 100.834,-108.472 171.112,-145.139c70.277,-36.667 149.722,-63.148 238.333,-79.444c88.611,-16.297 177.731,-24.445 267.361,-24.445c112.037,0 217.963,10.185 317.778,30.556c99.815,20.37 181.296,46.852 244.444,79.444l-70.278,308.611l-397.222,0Z" style="fill:rgb(206,50,64);fill-rule:nonzero;"/>
            <path d="M6131.94,3205.19c2.037,-10.185 4.074,-20.37 6.111,-30.555c2.037,-10.185 3.056,-21.389 3.056,-33.611c0,-36.667 -6.621,-70.787 -19.861,-102.361c-13.241,-31.575 -39.213,-47.362 -77.917,-47.362c-34.63,0 -69.259,14.769 -103.889,44.306c-34.629,29.537 -51.944,68.75 -51.944,117.639c0,32.592 8.657,58.565 25.972,77.917c17.315,19.351 40.231,35.138 68.75,47.361c28.518,12.222 60.602,22.407 96.25,30.555c35.648,8.148 70.787,16.297 105.417,24.445c48.889,12.222 95.231,26.99 139.027,44.305c43.797,17.315 83.01,40.232 117.639,68.75c34.63,28.519 62.13,63.658 82.5,105.417c20.371,41.759 30.556,93.194 30.556,154.305c0,85.556 -19.861,157.362 -59.583,215.417c-39.723,58.056 -94.723,104.908 -165,140.556c-70.278,35.648 -152.778,60.602 -247.5,74.861c-94.723,14.259 -196.065,21.389 -304.028,21.389c-165,0 -301.482,-12.223 -409.445,-36.667c-107.963,-24.444 -183.333,-47.87 -226.111,-70.278l64.167,-305.555l412.5,0c-2.037,10.185 -3.056,19.861 -3.056,29.027l0,29.028c0,46.852 10.695,84.028 32.084,111.528c21.389,27.5 58.564,41.25 111.527,41.25c59.074,0 101.343,-16.806 126.806,-50.417c25.463,-33.611 38.194,-64.676 38.194,-93.194c0,-28.519 -10.694,-53.472 -32.083,-74.861c-21.389,-21.389 -48.38,-39.722 -80.972,-55c-32.593,-15.278 -68.75,-28.519 -108.472,-39.722c-39.723,-11.204 -77.917,-21.899 -114.584,-32.084c-26.481,-6.111 -56.527,-16.296 -90.139,-30.555c-33.611,-14.26 -65.694,-34.63 -96.25,-61.111c-30.555,-26.482 -56.018,-60.602 -76.388,-102.362c-20.371,-41.759 -30.556,-94.213 -30.556,-157.361c0,-89.629 21.898,-164.49 65.694,-224.583c43.797,-60.093 100.834,-108.472 171.112,-145.139c70.277,-36.667 149.722,-63.148 238.333,-79.444c88.611,-16.297 177.731,-24.445 267.361,-24.445c112.037,0 217.963,10.185 317.778,30.556c99.815,20.37 181.296,46.852 244.444,79.444l-70.278,308.611l-397.222,0Z" style="fill:rgb(206,50,64);fill-rule:nonzero;"/>
            <path d="M4222.22,3015.74c42.778,-40.741 90.648,-78.426 143.611,-113.056c46.852,-28.518 101.852,-55 165,-79.444c63.148,-24.445 133.426,-36.667 210.833,-36.667c105.926,0 193.519,26.991 262.778,80.972c69.259,53.982 103.889,127.825 103.889,221.528c0,26.482 -3.055,58.565 -9.167,96.25c-6.111,37.685 -13.24,76.898 -21.388,117.639c-8.149,40.741 -16.806,81.991 -25.973,123.75c-9.166,41.759 -16.805,78.935 -22.916,111.528l-128.334,595.833l-620.277,0l168.055,-797.5c4.074,-26.481 9.167,-53.472 15.278,-80.972c6.111,-27.5 9.167,-52.454 9.167,-74.861c0,-30.556 -7.639,-55.509 -22.917,-74.861c-15.278,-19.352 -38.195,-29.028 -68.75,-29.028c-36.667,0 -71.806,13.241 -105.417,39.722c-33.611,26.482 -59.583,48.889 -77.916,67.222l-201.667,950.278l-623.333,0l278.055,-1313.89l498.056,0l55,195.556l18.333,0Z" style="fill:rgb(206,50,64);fill-rule:nonzero;"/>
            <path d="M4222.22,3015.74c42.778,-40.741 90.648,-78.426 143.611,-113.056c46.852,-28.518 101.852,-55 165,-79.444c63.148,-24.445 133.426,-36.667 210.833,-36.667c105.926,0 193.519,26.991 262.778,80.972c69.259,53.982 103.889,127.825 103.889,221.528c0,26.482 -3.055,58.565 -9.167,96.25c-6.111,37.685 -13.24,76.898 -21.388,117.639c-8.149,40.741 -16.806,81.991 -25.973,123.75c-9.166,41.759 -16.805,78.935 -22.916,111.528l-128.334,595.833l-620.277,0l168.055,-797.5c4.074,-26.481 9.167,-53.472 15.278,-80.972c6.111,-27.5 9.167,-52.454 9.167,-74.861c0,-30.556 -7.639,-55.509 -22.917,-74.861c-15.278,-19.352 -38.195,-29.028 -68.75,-29.028c-36.667,0 -71.806,13.241 -105.417,39.722c-33.611,26.482 -59.583,48.889 -77.916,67.222l-201.667,950.278l-623.333,0l278.055,-1313.89l498.056,0l55,195.556l18.333,0Z" style="fill:rgb(206,50,64);fill-rule:nonzero;"/>
            <path d="M2309.44,3440.47c-10.185,44.815 -18.333,83.519 -24.444,116.111c-6.111,32.593 -9.167,63.148 -9.167,91.667c0,71.296 24.954,128.333 74.861,171.111c49.908,42.778 123.75,64.167 221.528,64.167c71.296,0 129.861,-12.223 175.694,-36.667c45.834,-24.444 83.519,-57.037 113.056,-97.778c29.537,-40.741 52.963,-87.592 70.278,-140.555c17.315,-52.963 32.083,-108.982 44.305,-168.056l259.723,-1246.67l278.055,0l-265.833,1252.78c-20.371,97.778 -49.908,189.445 -88.611,275c-38.704,85.556 -94.213,160.926 -166.528,226.111c-72.315,65.186 -165.509,116.621 -279.583,154.306c-114.075,37.685 -255.649,56.528 -424.723,56.528c-234.259,0 -407.407,-38.195 -519.444,-114.584c-112.037,-76.389 -168.056,-194.027 -168.056,-352.916c0,-71.297 9.167,-161.945 27.5,-271.945c18.334,-110 41.76,-229.166 70.278,-357.5l186.389,-867.778l693.611,0l-268.889,1246.67Z" style="fill:rgb(206,50,64);fill-rule:nonzero;"/>
            <path d="M2309.44,3440.47c-10.185,44.815 -18.333,83.519 -24.444,116.111c-6.111,32.593 -9.167,63.148 -9.167,91.667c0,71.296 24.954,128.333 74.861,171.111c49.908,42.778 123.75,64.167 221.528,64.167c71.296,0 129.861,-12.223 175.694,-36.667c45.834,-24.444 83.519,-57.037 113.056,-97.778c29.537,-40.741 52.963,-87.592 70.278,-140.555c17.315,-52.963 32.083,-108.982 44.305,-168.056l259.723,-1246.67l278.055,0l-265.833,1252.78c-20.371,97.778 -49.908,189.445 -88.611,275c-38.704,85.556 -94.213,160.926 -166.528,226.111c-72.315,65.186 -165.509,116.621 -279.583,154.306c-114.075,37.685 -255.649,56.528 -424.723,56.528c-234.259,0 -407.407,-38.195 -519.444,-114.584c-112.037,-76.389 -168.056,-194.027 -168.056,-352.916c0,-71.297 9.167,-161.945 27.5,-271.945c18.334,-110 41.76,-229.166 70.278,-357.5l186.389,-867.778l693.611,0l-268.889,1246.67Z" style="fill:rgb(206,50,64);fill-rule:nonzero;"/>
        </g>
    </g>
</svg>
